v -0.000000 -0.490393 -0.097545
v -0.000000 -0.461940 -0.191342
v 0.037329 -0.461940 -0.187665
v 0.019030 -0.490393 -0.095671
v -0.000000 -0.000000 -0.500000
v -0.000000 0.097545 -0.490393
v 0.095671 0.097545 -0.480970
v 0.097545 -0.000000 -0.490393
v -0.000000 0.490393 -0.097545
v -0.000000 0.500000 0.000000
v 0.019030 0.490393 -0.095671
v -0.000000 -0.500000 0.000000
v -0.000000 -0.097545 -0.490393
v 0.095671 -0.097545 -0.480970
v -0.000000 0.461940 -0.191342
v 0.037329 0.461940 -0.187665
v -0.000000 -0.191342 -0.461940
v 0.090120 -0.191342 -0.453064
v -0.000000 0.415735 -0.277785
v 0.054193 0.415735 -0.272448
v -0.000000 -0.277785 -0.415735
v 0.081106 -0.277785 -0.407747
v -0.000000 0.353554 -0.353554
v 0.068975 0.353554 -0.346760
v -0.000000 -0.353554 -0.353554
v 0.068975 -0.353554 -0.346760
v -0.000000 0.277785 -0.415735
v 0.081106 0.277785 -0.407747
v -0.000000 -0.415735 -0.277785
v 0.054193 -0.415735 -0.272448
v -0.000000 0.191342 -0.461940
v 0.090120 0.191342 -0.453064
v 0.106304 -0.415735 -0.256640
v 0.073224 -0.461940 -0.176776
v 0.176776 0.191342 -0.426777
v 0.187665 0.097545 -0.453064
v 0.037329 -0.490393 -0.090120
v 0.191342 -0.000000 -0.461940
v 0.037329 0.490393 -0.090120
v 0.187665 -0.097545 -0.453064
v 0.073224 0.461940 -0.176776
v 0.176776 -0.191342 -0.426777
v 0.106304 0.415735 -0.256640
v 0.159095 -0.277785 -0.384089
v 0.135299 0.353554 -0.326641
v 0.135299 -0.353554 -0.326641
v 0.159095 0.277785 -0.384089
v 0.106304 0.461940 -0.159095
v 0.154329 0.415735 -0.230970
v 0.256640 -0.191342 -0.384089
v 0.230970 -0.277785 -0.345671
v 0.196424 0.353554 -0.293969
v 0.196424 -0.353554 -0.293969
v 0.230970 0.277785 -0.345671
v 0.154329 -0.415735 -0.230970
v 0.256640 0.191342 -0.384089
v 0.106304 -0.461940 -0.159095
v 0.272448 0.097545 -0.407747
v 0.054193 -0.490393 -0.081106
v 0.277785 -0.000000 -0.415735
v 0.054193 0.490393 -0.081106
v 0.272448 -0.097545 -0.407747
v 0.326641 0.191342 -0.326641
v 0.346760 0.097545 -0.346760
v 0.135299 -0.461940 -0.135299
v 0.068975 -0.490393 -0.068975
v 0.353554 -0.000000 -0.353554
v 0.068975 0.490393 -0.068975
v 0.346760 -0.097545 -0.346760
v 0.135299 0.461940 -0.135299
v 0.326641 -0.191342 -0.326641
v 0.196424 0.415735 -0.196424
v 0.293969 -0.277785 -0.293969
v 0.250000 0.353554 -0.250000
v 0.250000 -0.353554 -0.250000
v 0.293969 0.277785 -0.293969
v 0.196424 -0.415735 -0.196424
v 0.384089 -0.191342 -0.256640
v 0.345671 -0.277785 -0.230970
v 0.230970 0.415735 -0.154329
v 0.293969 0.353554 -0.196424
v 0.293969 -0.353554 -0.196424
v 0.345671 0.277785 -0.230970
v 0.230970 -0.415735 -0.154329
v 0.384089 0.191342 -0.256640
v 0.159095 -0.461940 -0.106304
v 0.407747 0.097545 -0.272448
v 0.081106 -0.490393 -0.054193
v 0.415735 -0.000000 -0.277785
v 0.081106 0.490393 -0.054193
v 0.407747 -0.097545 -0.272448
v 0.159095 0.461940 -0.106304
v 0.176776 -0.461940 -0.073224
v 0.090120 -0.490393 -0.037329
v 0.453064 0.097545 -0.187665
v 0.461940 -0.000000 -0.191342
v 0.090120 0.490393 -0.037329
v 0.453064 -0.097545 -0.187665
v 0.176776 0.461940 -0.073224
v 0.426777 -0.191342 -0.176776
v 0.256640 0.415735 -0.106304
v 0.384089 -0.277785 -0.159095
v 0.326641 0.353554 -0.135299
v 0.326641 -0.353554 -0.135299
v 0.384089 0.277785 -0.159095
v 0.256640 -0.415735 -0.106304
v 0.426777 0.191342 -0.176776
v 0.272448 0.415735 -0.054193
v 0.346760 0.353554 -0.068975
v 0.407747 -0.277785 -0.081106
v 0.346760 -0.353554 -0.068975
v 0.407747 0.277785 -0.081106
v 0.272448 -0.415735 -0.054193
v 0.453064 0.191342 -0.090120
v 0.187665 -0.461940 -0.037329
v 0.480970 0.097545 -0.095671
v 0.095671 -0.490393 -0.019030
v 0.490393 -0.000000 -0.097545
v 0.095671 0.490393 -0.019030
v 0.480970 -0.097545 -0.095671
v 0.187665 0.461940 -0.037329
v 0.453064 -0.191342 -0.090120
v 0.490393 0.097545 0.000000
v 0.500000 -0.000000 0.000000
v 0.097545 0.490393 0.000000
v 0.097545 -0.490393 0.000000
v 0.490393 -0.097545 0.000000
v 0.191342 0.461940 0.000000
v 0.461940 -0.191342 0.000000
v 0.277785 0.415735 0.000000
v 0.415735 -0.277785 0.000000
v 0.353554 0.353554 0.000000
v 0.353554 -0.353554 0.000000
v 0.415735 0.277785 0.000000
v 0.277785 -0.415735 0.000000
v 0.461940 0.191342 0.000000
v 0.191342 -0.461940 0.000000
v 0.407747 -0.277785 0.081106
v 0.346760 -0.353554 0.068975
v 0.346760 0.353554 0.068975
v 0.407747 0.277785 0.081106
v 0.272448 -0.415735 0.054193
v 0.453064 0.191342 0.090120
v 0.187665 -0.461940 0.037329
v 0.480970 0.097545 0.095671
v 0.095671 -0.490393 0.019030
v 0.490393 -0.000000 0.097545
v 0.095671 0.490393 0.019030
v 0.480970 -0.097545 0.095671
v 0.187665 0.461940 0.037329
v 0.453064 -0.191342 0.090120
v 0.272448 0.415735 0.054193
v 0.090120 -0.490393 0.037329
v 0.461940 -0.000000 0.191342
v 0.453064 -0.097545 0.187665
v 0.090120 0.490393 0.037329
v 0.176776 0.461940 0.073224
v 0.426777 -0.191342 0.176776
v 0.256640 0.415735 0.106304
v 0.384089 -0.277785 0.159095
v 0.326641 0.353554 0.135299
v 0.326641 -0.353554 0.135299
v 0.384089 0.277785 0.159095
v 0.256640 -0.415735 0.106304
v 0.426777 0.191342 0.176776
v 0.176776 -0.461940 0.073224
v 0.453064 0.097545 0.187665
v 0.293969 -0.353554 0.196424
v 0.230970 -0.415735 0.154329
v 0.345671 0.277785 0.230970
v 0.384089 0.191342 0.256640
v 0.159095 -0.461940 0.106304
v 0.407747 0.097545 0.272448
v 0.081106 -0.490393 0.054193
v 0.415735 -0.000000 0.277785
v 0.081106 0.490393 0.054193
v 0.407747 -0.097545 0.272448
v 0.159095 0.461940 0.106304
v 0.384089 -0.191342 0.256640
v 0.230970 0.415735 0.154329
v 0.345671 -0.277785 0.230970
v 0.293969 0.353554 0.196424
v 0.068975 0.490393 0.068975
v 0.135299 0.461940 0.135299
v 0.346760 -0.097545 0.346760
v 0.326641 -0.191342 0.326641
v 0.196424 0.415735 0.196424
v 0.293969 -0.277785 0.293969
v 0.250000 0.353554 0.250000
v 0.250000 -0.353554 0.250000
v 0.293969 0.277785 0.293969
v 0.196424 -0.415735 0.196424
v 0.326641 0.191342 0.326641
v 0.135299 -0.461940 0.135299
v 0.346760 0.097545 0.346760
v 0.068975 -0.490393 0.068975
v 0.353553 -0.000000 0.353554
v 0.230970 0.277785 0.345671
v 0.256640 0.191342 0.384089
v 0.154329 -0.415735 0.230970
v 0.106304 -0.461940 0.159095
v 0.272448 0.097545 0.407747
v 0.054193 -0.490393 0.081106
v 0.277785 -0.000000 0.415735
v 0.054193 0.490393 0.081106
v 0.272448 -0.097545 0.407747
v 0.106304 0.461940 0.159095
v 0.256640 -0.191342 0.384089
v 0.154329 0.415735 0.230970
v 0.230970 -0.277785 0.345671
v 0.196424 0.353554 0.293969
v 0.196424 -0.353554 0.293969
v 0.187665 -0.097545 0.453064
v 0.176776 -0.191342 0.426777
v 0.073224 0.461940 0.176776
v 0.106304 0.415735 0.256640
v 0.159095 -0.277785 0.384089
v 0.135299 0.353554 0.326641
v 0.135299 -0.353554 0.326641
v 0.159095 0.277785 0.384089
v 0.106304 -0.415735 0.256640
v 0.176776 0.191342 0.426777
v 0.073224 -0.461940 0.176776
v 0.187665 0.097545 0.453064
v 0.037329 -0.490393 0.090120
v 0.191342 -0.000000 0.461940
v 0.037329 0.490393 0.090120
v 0.054193 -0.415735 0.272448
v 0.037329 -0.461940 0.187665
v 0.090120 0.191342 0.453064
v 0.095671 0.097545 0.480970
v 0.019030 -0.490393 0.095671
v 0.097545 -0.000000 0.490393
v 0.019030 0.490393 0.095671
v 0.095671 -0.097545 0.480970
v 0.037329 0.461940 0.187665
v 0.090120 -0.191342 0.453064
v 0.054193 0.415735 0.272448
v 0.081106 -0.277785 0.407747
v 0.068975 0.353554 0.346760
v 0.068975 -0.353554 0.346760
v 0.081106 0.277785 0.407747
v -0.000000 0.461940 0.191342
v -0.000000 0.415735 0.277785
v -0.000000 -0.191342 0.461940
v -0.000000 -0.277785 0.415735
v -0.000000 0.353554 0.353554
v -0.000000 -0.353554 0.353554
v -0.000000 0.277785 0.415735
v -0.000000 -0.415735 0.277785
v -0.000000 0.191342 0.461940
v -0.000000 -0.461940 0.191342
v -0.000000 0.097545 0.490393
v -0.000000 -0.490393 0.097545
v -0.000000 -0.000000 0.500000
v -0.000000 0.490393 0.097545
v -0.000000 -0.097545 0.490393
v -0.090120 0.191342 0.453064
v -0.095671 0.097545 0.480970
v -0.037329 -0.461940 0.187665
v -0.019030 -0.490393 0.095671
v -0.097546 -0.000000 0.490393
v -0.019030 0.490393 0.095671
v -0.095671 -0.097545 0.480970
v -0.037329 0.461940 0.187665
v -0.090120 -0.191342 0.453064
v -0.054193 0.415735 0.272448
v -0.081106 -0.277785 0.407747
v -0.068975 0.353554 0.346760
v -0.068975 -0.353554 0.346760
v -0.081106 0.277785 0.407747
v -0.054193 -0.415735 0.272448
v -0.176776 -0.191342 0.426777
v -0.159095 -0.277785 0.384089
v -0.106304 0.415735 0.256640
v -0.135299 0.353554 0.326641
v -0.135299 -0.353554 0.326641
v -0.159095 0.277785 0.384089
v -0.106304 -0.415735 0.256640
v -0.176776 0.191342 0.426777
v -0.073224 -0.461940 0.176776
v -0.187665 0.097545 0.453064
v -0.037329 -0.490393 0.090120
v -0.191342 -0.000000 0.461940
v -0.037329 0.490393 0.090120
v -0.187665 -0.097545 0.453064
v -0.073224 0.461940 0.176776
v -0.106304 -0.461940 0.159095
v -0.054193 -0.490393 0.081106
v -0.272448 0.097545 0.407747
v -0.277785 -0.000000 0.415735
v -0.054193 0.490393 0.081106
v -0.272448 -0.097545 0.407747
v -0.106304 0.461940 0.159095
v -0.256640 -0.191342 0.384089
v -0.154329 0.415735 0.230970
v -0.230970 -0.277785 0.345671
v -0.196424 0.353554 0.293969
v -0.196424 -0.353554 0.293969
v -0.230970 0.277785 0.345670
v -0.154329 -0.415735 0.230970
v -0.256640 0.191342 0.384089
v -0.293969 -0.277785 0.293969
v -0.250000 -0.353554 0.250000
v -0.250000 0.353554 0.250000
v -0.293969 0.277785 0.293969
v -0.196424 -0.415735 0.196424
v -0.326641 0.191342 0.326641
v -0.135299 -0.461940 0.135299
v -0.346760 0.097545 0.346760
v -0.068975 -0.490393 0.068975
v -0.353553 -0.000000 0.353553
v -0.068975 0.490393 0.068975
v -0.346760 -0.097545 0.346760
v -0.135299 0.461940 0.135299
v -0.326641 -0.191342 0.326641
v -0.196424 0.415735 0.196424
v -0.081106 0.490393 0.054193
v -0.081106 -0.490393 0.054193
v -0.415735 -0.000000 0.277785
v -0.407747 -0.097545 0.272448
v -0.159095 0.461940 0.106304
v -0.384089 -0.191342 0.256640
v -0.230970 0.415735 0.154329
v -0.345671 -0.277785 0.230970
v -0.293969 0.353554 0.196424
v -0.293969 -0.353554 0.196424
v -0.345670 0.277785 0.230970
v -0.230970 -0.415735 0.154329
v -0.384089 0.191342 0.256640
v -0.159095 -0.461940 0.106304
v -0.407747 0.097545 0.272448
v -0.326641 0.353554 0.135299
v -0.384089 0.277785 0.159095
v -0.326641 -0.353554 0.135299
v -0.256640 -0.415735 0.106304
v -0.426777 0.191342 0.176776
v -0.176776 -0.461940 0.073224
v -0.453064 0.097545 0.187665
v -0.090120 -0.490393 0.037329
v -0.461940 -0.000000 0.191342
v -0.090120 0.490393 0.037329
v -0.453064 -0.097545 0.187665
v -0.176776 0.461940 0.073224
v -0.426777 -0.191342 0.176776
v -0.256640 0.415735 0.106304
v -0.384089 -0.277785 0.159095
v -0.490392 -0.000000 0.097545
v -0.480970 -0.097545 0.095670
v -0.095671 0.490393 0.019030
v -0.187665 0.461940 0.037329
v -0.453064 -0.191342 0.090120
v -0.272448 0.415735 0.054193
v -0.407747 -0.277785 0.081106
v -0.346760 0.353554 0.068975
v -0.346760 -0.353554 0.068975
v -0.407747 0.277785 0.081106
v -0.272448 -0.415735 0.054193
v -0.453064 0.191342 0.090120
v -0.187665 -0.461940 0.037329
v -0.480970 0.097545 0.095670
v -0.095671 -0.490393 0.019030
v -0.353554 -0.353554 0.000000
v -0.277785 -0.415735 0.000000
v -0.415735 0.277785 0.000000
v -0.461940 0.191342 0.000000
v -0.191342 -0.461940 0.000000
v -0.490393 0.097545 0.000000
v -0.097545 -0.490393 0.000000
v -0.500000 -0.000000 0.000000
v -0.097545 0.490393 0.000000
v -0.490393 -0.097545 0.000000
v -0.191342 0.461940 0.000000
v -0.461940 -0.191342 0.000000
v -0.277785 0.415735 0.000000
v -0.415735 -0.277785 0.000000
v -0.353554 0.353554 0.000000
v -0.095671 0.490393 -0.019030
v -0.187665 0.461940 -0.037329
v -0.480970 -0.097545 -0.095671
v -0.453064 -0.191342 -0.090120
v -0.272448 0.415735 -0.054193
v -0.407747 -0.277785 -0.081106
v -0.346760 0.353554 -0.068975
v -0.346760 -0.353554 -0.068975
v -0.407747 0.277785 -0.081106
v -0.272448 -0.415735 -0.054193
v -0.453064 0.191342 -0.090120
v -0.187665 -0.461940 -0.037329
v -0.480970 0.097545 -0.095671
v -0.095671 -0.490393 -0.019030
v -0.490392 -0.000000 -0.097546
v -0.384089 0.277785 -0.159095
v -0.426777 0.191342 -0.176776
v -0.256640 -0.415735 -0.106304
v -0.176776 -0.461940 -0.073224
v -0.453064 0.097545 -0.187665
v -0.090120 -0.490393 -0.037329
v -0.461940 -0.000000 -0.191342
v -0.090120 0.490393 -0.037329
v -0.453064 -0.097545 -0.187665
v -0.176776 0.461940 -0.073224
v -0.426777 -0.191342 -0.176776
v -0.256640 0.415735 -0.106304
v -0.384089 -0.277785 -0.159095
v -0.326641 0.353554 -0.135299
v -0.326641 -0.353554 -0.135299
v -0.407747 -0.097545 -0.272448
v -0.384089 -0.191342 -0.256640
v -0.159095 0.461940 -0.106304
v -0.230970 0.415735 -0.154329
v -0.345671 -0.277785 -0.230970
v -0.293969 0.353554 -0.196424
v -0.293969 -0.353554 -0.196424
v -0.345671 0.277785 -0.230970
v -0.230970 -0.415735 -0.154329
v -0.384089 0.191342 -0.256640
v -0.159095 -0.461940 -0.106304
v -0.407747 0.097545 -0.272448
v -0.081106 -0.490393 -0.054193
v -0.415734 -0.000000 -0.277785
v -0.081106 0.490393 -0.054193
v -0.196424 -0.415735 -0.196424
v -0.135299 -0.461940 -0.135299
v -0.326641 0.191342 -0.326641
v -0.346760 0.097545 -0.346760
v -0.068975 -0.490393 -0.068975
v -0.353553 -0.000000 -0.353553
v -0.068975 0.490393 -0.068975
v -0.346760 -0.097545 -0.346760
v -0.135299 0.461940 -0.135299
v -0.326641 -0.191342 -0.326641
v -0.196424 0.415735 -0.196424
v -0.293969 -0.277785 -0.293969
v -0.250000 0.353554 -0.250000
v -0.250000 -0.353554 -0.250000
v -0.293969 0.277785 -0.293969
v -0.256640 -0.191342 -0.384089
v -0.230970 -0.277785 -0.345671
v -0.154329 0.415735 -0.230970
v -0.196424 0.353554 -0.293969
v -0.196424 -0.353554 -0.293969
v -0.230970 0.277785 -0.345671
v -0.154329 -0.415735 -0.230970
v -0.256640 0.191342 -0.384089
v -0.106304 -0.461940 -0.159095
v -0.272448 0.097545 -0.407747
v -0.054193 -0.490393 -0.081106
v -0.277785 -0.000000 -0.415735
v -0.054193 0.490393 -0.081106
v -0.272448 -0.097545 -0.407747
v -0.106304 0.461940 -0.159095
v -0.073223 -0.461940 -0.176776
v -0.037329 -0.490393 -0.090120
v -0.187665 0.097545 -0.453064
v -0.191342 -0.000000 -0.461940
v -0.037329 0.490393 -0.090120
v -0.187665 -0.097545 -0.453064
v -0.073223 0.461940 -0.176776
v -0.176776 -0.191342 -0.426777
v -0.106304 0.415735 -0.256640
v -0.159095 -0.277785 -0.384089
v -0.135299 0.353554 -0.326641
v -0.135299 -0.353554 -0.326641
v -0.159095 0.277785 -0.384089
v -0.106304 -0.415735 -0.256640
v -0.176776 0.191342 -0.426777
v -0.054193 0.415735 -0.272448
v -0.068975 0.353554 -0.346760
v -0.081106 -0.277785 -0.407747
v -0.068975 -0.353554 -0.346760
v -0.081106 0.277785 -0.407747
v -0.054193 -0.415735 -0.272448
v -0.090120 0.191342 -0.453064
v -0.037329 -0.461940 -0.187665
v -0.095670 0.097545 -0.480970
v -0.019030 -0.490393 -0.095671
v -0.097545 -0.000000 -0.490392
v -0.019030 0.490393 -0.095671
v -0.095670 -0.097545 -0.480970
v -0.037329 0.461940 -0.187665
v -0.090120 -0.191342 -0.453064
vn 0.000000 -0.980789 -0.195072
vn 0.000000 -0.923893 -0.382652
vn 0.074651 -0.923893 -0.375299
vn 0.038056 -0.980789 -0.191324
vn -0.000003 0.000000 -1.000000
vn -0.000002 0.195107 -0.980782
vn 0.191341 0.195108 -0.961936
vn 0.195090 0.000000 -0.980785
vn 0.000000 0.980789 -0.195072
vn -0.000000 1.000000 0.000000
vn 0.038056 0.980789 -0.191324
vn -0.000000 -1.000000 -0.000000
vn -0.000002 -0.195107 -0.980782
vn 0.191341 -0.195108 -0.961936
vn 0.000000 0.923893 -0.382651
vn 0.074651 0.923893 -0.375299
vn -0.000001 -0.382712 -0.923868
vn 0.180239 -0.382713 -0.906115
vn -0.000000 0.831493 -0.555535
vn 0.108380 0.831493 -0.544860
vn -0.000000 -0.555605 -0.831446
vn 0.162209 -0.555605 -0.815470
vn -0.000000 0.707139 -0.707075
vn 0.137945 0.707139 -0.693488
vn -0.000000 -0.707139 -0.707075
vn 0.137945 -0.707139 -0.693488
vn -0.000000 0.555605 -0.831446
vn 0.162209 0.555605 -0.815470
vn -0.000000 -0.831493 -0.555535
vn 0.108380 -0.831493 -0.544860
vn -0.000001 0.382712 -0.923868
vn 0.180239 0.382713 -0.906115
vn 0.108380 -0.831493 -0.544860
vn 0.212594 -0.831493 -0.513248
vn 0.146434 -0.923893 -0.353524
vn 0.353548 0.382713 -0.853542
vn 0.375329 0.195108 -0.906124
vn 0.038056 -0.980789 -0.191324
vn 0.074651 -0.980789 -0.180223
vn 0.195090 -0.000000 -0.980785
vn 0.191341 0.195108 -0.961936
vn 0.382684 0.000000 -0.923879
vn 0.074651 0.980789 -0.180223
vn 0.038056 -0.980789 -0.191324
vn 0.195090 0.000000 -0.980785
vn 0.375329 -0.195108 -0.906124
vn 0.074651 0.923893 -0.375299
vn 0.038056 0.980789 -0.191324
vn 0.146434 0.923893 -0.353524
vn 0.353548 -0.382713 -0.853542
vn 0.212594 0.831493 -0.513247
vn 0.162209 -0.555605 -0.815470
vn 0.180239 -0.382713 -0.906115
vn 0.318180 -0.555605 -0.768157
vn 0.108380 0.831493 -0.544860
vn 0.270586 0.707139 -0.653252
vn 0.270586 -0.707139 -0.653252
vn 0.162209 0.555605 -0.815470
vn 0.318180 0.555605 -0.768157
vn 0.137945 -0.707139 -0.693488
vn 0.146434 0.923893 -0.353524
vn 0.212590 0.923893 -0.318164
vn 0.308639 0.831493 -0.461910
vn 0.353548 -0.382713 -0.853542
vn 0.513273 -0.382713 -0.768168
vn 0.461927 -0.555605 -0.691322
vn 0.212594 0.831493 -0.513247
vn 0.392830 0.707139 -0.587911
vn 0.392830 -0.707139 -0.587911
vn 0.270586 0.707139 -0.653252
vn 0.461927 0.555605 -0.691322
vn 0.308639 -0.831493 -0.461911
vn 0.513273 0.382712 -0.768168
vn 0.146434 -0.923893 -0.353524
vn 0.212594 -0.831493 -0.513247
vn 0.212589 -0.923893 -0.318164
vn 0.375329 0.195108 -0.906124
vn 0.544893 0.195108 -0.815490
vn 0.074651 -0.980789 -0.180223
vn 0.146434 -0.923893 -0.353524
vn 0.108375 -0.980789 -0.162196
vn 0.555570 0.000000 -0.831470
vn 0.074651 0.980789 -0.180223
vn 0.108375 0.980789 -0.162196
vn 0.074651 -0.980789 -0.180223
vn 0.544893 -0.195108 -0.815490
vn 0.074651 0.980789 -0.180223
vn 0.353548 -0.382713 -0.853542
vn 0.653273 0.382712 -0.653273
vn 0.693517 0.195109 -0.693518
vn 0.108375 -0.980789 -0.162196
vn 0.270576 -0.923892 -0.270577
vn 0.137936 -0.980789 -0.137936
vn 0.555570 0.000000 -0.831470
vn 0.544893 0.195108 -0.815490
vn 0.707106 0.000000 -0.707108
vn 0.108375 0.980789 -0.162196
vn 0.137936 0.980789 -0.137936
vn 0.108375 -0.980789 -0.162196
vn 0.693517 -0.195109 -0.693518
vn 0.212590 0.923893 -0.318164
vn 0.108375 0.980789 -0.162196
vn 0.270576 0.923892 -0.270576
vn 0.513274 -0.382713 -0.768168
vn 0.653273 -0.382712 -0.653273
vn 0.308639 0.831493 -0.461910
vn 0.212590 0.923893 -0.318164
vn 0.392823 0.831493 -0.392823
vn 0.461927 -0.555605 -0.691322
vn 0.587922 -0.555605 -0.587922
vn 0.308639 0.831493 -0.461910
vn 0.499977 0.707139 -0.499977
vn 0.461927 -0.555605 -0.691322
vn 0.499977 -0.707139 -0.499977
vn 0.587922 0.555605 -0.587922
vn 0.392830 -0.707139 -0.587911
vn 0.392823 -0.831493 -0.392823
vn 0.513273 0.382713 -0.768168
vn 0.461927 0.555605 -0.691322
vn 0.212589 -0.923892 -0.318164
vn 0.308639 -0.831493 -0.461911
vn 0.768168 -0.382713 -0.513274
vn 0.691322 -0.555605 -0.461927
vn 0.461911 0.831493 -0.308639
vn 0.587911 0.707139 -0.392829
vn 0.499977 -0.707139 -0.499977
vn 0.587922 -0.555605 -0.587922
vn 0.587911 -0.707139 -0.392829
vn 0.587922 0.555605 -0.587922
vn 0.499977 0.707139 -0.499977
vn 0.691323 0.555605 -0.461927
vn 0.499977 -0.707140 -0.499977
vn 0.461911 -0.831493 -0.308639
vn 0.653273 0.382712 -0.653273
vn 0.587922 0.555605 -0.587922
vn 0.768168 0.382712 -0.513274
vn 0.270576 -0.923892 -0.270577
vn 0.392823 -0.831493 -0.392823
vn 0.318164 -0.923893 -0.212589
vn 0.693517 0.195109 -0.693518
vn 0.653273 0.382712 -0.653273
vn 0.815490 0.195109 -0.544893
vn 0.137936 -0.980789 -0.137936
vn 0.270576 -0.923892 -0.270577
vn 0.162196 -0.980789 -0.108375
vn 0.831470 0.000000 -0.555570
vn -0.000000 1.000000 -0.000000
vn 0.162196 0.980789 -0.108375
vn 0.137936 -0.980789 -0.137936
vn 0.815490 -0.195109 -0.544893
vn 0.137936 0.980789 -0.137936
vn 0.318164 0.923893 -0.212589
vn 0.693517 -0.195109 -0.693518
vn 0.392823 0.831493 -0.392823
vn 0.162196 -0.980789 -0.108375
vn 0.353524 -0.923893 -0.146434
vn 0.180223 -0.980789 -0.074652
vn 0.906124 0.195108 -0.375328
vn 0.923880 0.000000 -0.382683
vn 0.180223 0.980789 -0.074651
vn 0.906124 -0.195108 -0.375328
vn 0.162196 0.980789 -0.108375
vn 0.353524 0.923893 -0.146434
vn 0.815490 -0.195109 -0.544893
vn 0.853542 -0.382713 -0.353548
vn 0.318164 0.923893 -0.212589
vn 0.513248 0.831493 -0.212594
vn 0.768168 -0.382713 -0.513274
vn 0.768157 -0.555605 -0.318180
vn 0.587911 0.707139 -0.392829
vn 0.461911 0.831493 -0.308639
vn 0.653252 0.707139 -0.270585
vn 0.691323 -0.555605 -0.461927
vn 0.653252 -0.707139 -0.270586
vn 0.587911 0.707139 -0.392829
vn 0.768157 0.555605 -0.318180
vn 0.587911 -0.707139 -0.392829
vn 0.513248 -0.831493 -0.212594
vn 0.853542 0.382713 -0.353548
vn 0.318164 -0.923893 -0.212589
vn 0.461911 -0.831493 -0.308639
vn 0.653252 0.707139 -0.270585
vn 0.513248 0.831493 -0.212594
vn 0.544860 0.831493 -0.108380
vn 0.693489 0.707138 -0.137944
vn 0.653252 -0.707139 -0.270586
vn 0.768157 -0.555605 -0.318180
vn 0.815471 -0.555605 -0.162207
vn 0.693489 -0.707138 -0.137944
vn 0.768157 0.555605 -0.318180
vn 0.815471 0.555605 -0.162207
vn 0.513248 -0.831493 -0.212594
vn 0.544860 -0.831493 -0.108380
vn 0.906115 0.382714 -0.180238
vn 0.375299 -0.923893 -0.074651
vn 0.961936 0.195108 -0.191341
vn 0.180223 -0.980789 -0.074652
vn 0.353524 -0.923893 -0.146434
vn 0.191323 -0.980789 -0.038057
vn 0.923880 -0.000000 -0.382683
vn 0.980785 0.000000 -0.195090
vn 0.180223 0.980789 -0.074651
vn 0.191323 0.980789 -0.038056
vn 0.906124 -0.195108 -0.375328
vn 0.923880 0.000000 -0.382683
vn 0.961936 -0.195108 -0.191341
vn 0.353524 0.923893 -0.146434
vn 0.375299 0.923893 -0.074651
vn 0.853542 -0.382713 -0.353548
vn 0.906124 -0.195108 -0.375328
vn 0.906115 -0.382714 -0.180238
vn 0.513248 0.831493 -0.212594
vn 0.353524 0.923893 -0.146434
vn 0.768157 -0.555605 -0.318180
vn 0.980785 -0.000000 -0.195090
vn 0.980782 0.195108 0.000000
vn 1.000000 0.000000 0.000000
vn 0.191323 0.980789 -0.038056
vn 0.195072 0.980789 0.000000
vn 0.195072 -0.980789 -0.000000
vn 0.980782 -0.195108 0.000000
vn 0.191323 0.980789 -0.038056
vn 0.382651 0.923893 0.000000
vn 0.906115 -0.382714 -0.180238
vn 0.923867 -0.382714 0.000000
vn 0.544860 0.831493 -0.108380
vn 0.375299 0.923893 -0.074651
vn 0.555535 0.831493 -0.000000
vn 0.906115 -0.382714 -0.180238
vn 0.831446 -0.555605 0.000000
vn 0.693489 0.707138 -0.137944
vn 0.707076 0.707138 -0.000000
vn 0.693489 -0.707138 -0.137944
vn 0.815471 -0.555605 -0.162207
vn 0.707076 -0.707138 -0.000000
vn 0.815471 0.555605 -0.162207
vn 0.693489 0.707138 -0.137944
vn 0.831446 0.555605 0.000000
vn 0.555535 -0.831494 0.000000
vn 0.815471 0.555605 -0.162207
vn 0.923867 0.382714 0.000000
vn 0.544860 -0.831493 -0.108380
vn 0.382651 -0.923893 0.000000
vn 0.961936 0.195108 -0.191341
vn 0.191323 -0.980789 -0.038057
vn 0.707076 -0.707138 0.000000
vn 0.831446 -0.555605 0.000000
vn 0.815471 -0.555605 0.162207
vn 0.693489 -0.707138 0.137944
vn 0.831446 0.555605 0.000000
vn 0.707076 0.707138 0.000000
vn 0.693489 0.707138 0.137944
vn 0.815471 0.555605 0.162207
vn 0.707076 -0.707138 0.000000
vn 0.544860 -0.831493 0.108379
vn 0.923867 0.382714 0.000000
vn 0.906115 0.382714 0.180238
vn 0.555535 -0.831493 0.000000
vn 0.375299 -0.923893 0.074651
vn 0.961936 0.195108 0.191341
vn 0.195072 -0.980789 0.000000
vn 0.191323 -0.980789 0.038057
vn 0.980782 0.195108 0.000000
vn 0.980785 0.000000 0.195090
vn 0.195072 0.980789 0.000000
vn 0.191323 0.980789 0.038056
vn -0.000000 -1.000000 -0.000000
vn 0.195072 -0.980789 0.000000
vn 0.980782 -0.195108 0.000000
vn 0.961936 -0.195108 0.191341
vn 0.195072 0.980789 0.000000
vn 0.375299 0.923893 0.074651
vn 0.906115 -0.382714 0.180238
vn 0.555535 0.831493 0.000000
vn 0.382651 0.923893 0.000000
vn 0.544860 0.831493 0.108379
vn 0.555535 0.831493 0.000000
vn 0.180223 -0.980789 0.074651
vn 0.961936 -0.195108 0.191341
vn 0.980785 0.000000 0.195090
vn 0.923879 0.000000 0.382684
vn 0.906124 -0.195108 0.375329
vn 0.180223 0.980789 0.074651
vn 0.353524 0.923893 0.146434
vn 0.906115 -0.382714 0.180238
vn 0.853542 -0.382713 0.353548
vn 0.544860 0.831493 0.108379
vn 0.375299 0.923893 0.074651
vn 0.513248 0.831493 0.212594
vn 0.815471 -0.555605 0.162207
vn 0.768156 -0.555605 0.318181
vn 0.693489 0.707138 0.137944
vn 0.544860 0.831493 0.108379
vn 0.653252 0.707139 0.270586
vn 0.815471 -0.555605 0.162207
vn 0.653252 -0.707139 0.270586
vn 0.815471 0.555605 0.162207
vn 0.693489 0.707138 0.137944
vn 0.768156 0.555605 0.318181
vn 0.693489 -0.707138 0.137944
vn 0.513247 -0.831493 0.212594
vn 0.906115 0.382714 0.180238
vn 0.815471 0.555605 0.162207
vn 0.853542 0.382713 0.353549
vn 0.544860 -0.831493 0.108379
vn 0.353524 -0.923893 0.146434
vn 0.961936 0.195108 0.191341
vn 0.906124 0.195108 0.375329
vn 0.375299 -0.923893 0.074651
vn 0.980785 -0.000000 0.195090
vn 0.191323 0.980789 0.038056
vn 0.653252 -0.707139 0.270586
vn 0.587911 -0.707139 0.392830
vn 0.461910 -0.831493 0.308639
vn 0.691323 0.555605 0.461927
vn 0.768167 0.382713 0.513273
vn 0.353524 -0.923893 0.146434
vn 0.318164 -0.923893 0.212590
vn 0.906124 0.195108 0.375329
vn 0.815490 0.195107 0.544894
vn 0.162196 -0.980789 0.108375
vn 0.906124 0.195107 0.375329
vn 0.831469 0.000000 0.555571
vn 0.162196 0.980789 0.108375
vn 0.180223 -0.980789 0.074651
vn 0.906124 -0.195108 0.375329
vn 0.815490 -0.195107 0.544894
vn 0.180223 0.980789 0.074651
vn 0.318164 0.923893 0.212589
vn 0.853542 -0.382713 0.353548
vn 0.906124 -0.195108 0.375329
vn 0.768167 -0.382713 0.513273
vn 0.513248 0.831493 0.212594
vn 0.461910 0.831493 0.308639
vn 0.768156 -0.555605 0.318181
vn 0.853542 -0.382713 0.353548
vn 0.691322 -0.555605 0.461927
vn 0.653252 0.707139 0.270586
vn 0.587911 0.707139 0.392830
vn 0.768156 -0.555605 0.318181
vn 0.768156 0.555605 0.318181
vn 0.653252 0.707139 0.270586
vn 0.162196 0.980789 0.108375
vn 0.137936 0.980789 0.137936
vn 0.270575 0.923892 0.270577
vn 0.693517 -0.195107 0.693518
vn 0.653273 -0.382713 0.653273
vn 0.461910 0.831493 0.308639
vn 0.318164 0.923893 0.212589
vn 0.392823 0.831493 0.392823
vn 0.691322 -0.555605 0.461927
vn 0.587922 -0.555605 0.587921
vn 0.461910 0.831493 0.308639
vn 0.499977 0.707139 0.499977
vn 0.691322 -0.555605 0.461927
vn 0.499977 -0.707139 0.499977
vn 0.691323 0.555605 0.461927
vn 0.587922 0.555605 0.587921
vn 0.461910 -0.831493 0.308639
vn 0.587911 -0.707139 0.392830
vn 0.392823 -0.831493 0.392823
vn 0.691323 0.555605 0.461927
vn 0.653273 0.382713 0.653273
vn 0.318164 -0.923893 0.212590
vn 0.461910 -0.831493 0.308639
vn 0.270575 -0.923892 0.270577
vn 0.815490 0.195107 0.544894
vn 0.768167 0.382713 0.513274
vn 0.693517 0.195107 0.693518
vn 0.318164 -0.923893 0.212590
vn 0.137936 -0.980789 0.137936
vn 0.707106 0.000000 0.707107
vn 0.162196 0.980789 0.108375
vn 0.162196 -0.980789 0.108375
vn 0.587922 0.555605 0.587921
vn 0.461927 0.555605 0.691323
vn 0.513273 0.382713 0.768168
vn 0.392823 -0.831493 0.392823
vn 0.308639 -0.831493 0.461911
vn 0.212589 -0.923893 0.318164
vn 0.693518 0.195107 0.693518
vn 0.653273 0.382713 0.653273
vn 0.544894 0.195107 0.815490
vn 0.137936 -0.980789 0.137936
vn 0.270575 -0.923892 0.270577
vn 0.108375 -0.980789 0.162196
vn 0.693518 0.195107 0.693518
vn 0.555571 0.000000 0.831469
vn 0.137936 0.980789 0.137936
vn 0.108375 0.980789 0.162197
vn 0.693518 -0.195107 0.693518
vn 0.544894 -0.195107 0.815490
vn 0.212589 0.923892 0.318164
vn 0.693518 -0.195107 0.693518
vn 0.513273 -0.382713 0.768168
vn 0.308639 0.831493 0.461910
vn 0.461927 -0.555605 0.691323
vn 0.392823 0.831493 0.392823
vn 0.392829 0.707139 0.587911
vn 0.499977 -0.707139 0.499977
vn 0.392829 -0.707139 0.587911
vn 0.587922 0.555605 0.587921
vn 0.499977 0.707139 0.499977
vn 0.392823 -0.831493 0.392823
vn 0.544894 -0.195107 0.815490
vn 0.375328 -0.195108 0.906125
vn 0.353548 -0.382712 0.853543
vn 0.146435 0.923892 0.353524
vn 0.212594 0.831493 0.513248
vn 0.461927 -0.555605 0.691323
vn 0.318180 -0.555605 0.768157
vn 0.392829 0.707139 0.587911
vn 0.270586 0.707139 0.653252
vn 0.461927 -0.555605 0.691323
vn 0.270586 -0.707139 0.653252
vn 0.318180 0.555605 0.768157
vn 0.308639 -0.831493 0.461911
vn 0.392829 -0.707139 0.587911
vn 0.212594 -0.831493 0.513247
vn 0.513273 0.382713 0.768168
vn 0.353548 0.382712 0.853543
vn 0.212589 -0.923893 0.318164
vn 0.308639 -0.831493 0.461911
vn 0.146435 -0.923893 0.353524
vn 0.544894 0.195107 0.815490
vn 0.513273 0.382713 0.768168
vn 0.375328 0.195108 0.906125
vn 0.108375 -0.980789 0.162196
vn 0.074651 -0.980789 0.180223
vn 0.555571 -0.000000 0.831469
vn 0.382683 0.000000 0.923880
vn -0.000000 1.000000 -0.000000
vn 0.074651 0.980789 0.180223
vn -0.000000 -1.000000 -0.000000
vn 0.544894 -0.195107 0.815490
vn 0.555571 0.000000 0.831469
vn 0.108375 0.980789 0.162197
vn 0.212594 -0.831493 0.513247
vn 0.108380 -0.831493 0.544860
vn 0.074651 -0.923893 0.375299
vn 0.375328 0.195108 0.906125
vn 0.353548 0.382712 0.853543
vn 0.180238 0.382713 0.906116
vn 0.191341 0.195107 0.961936
vn 0.074651 -0.980789 0.180223
vn 0.038056 -0.980789 0.191324
vn 0.375328 0.195108 0.906125
vn 0.195090 0.000000 0.980785
vn 0.074651 0.980789 0.180223
vn -0.000000 1.000000 0.000000
vn 0.038056 0.980789 0.191324
vn -0.000000 -1.000000 -0.000000
vn 0.074651 -0.980789 0.180223
vn 0.191341 -0.195107 0.961936
vn 0.146435 0.923893 0.353524
vn 0.074651 0.980789 0.180223
vn 0.074651 0.923893 0.375299
vn 0.180238 -0.382713 0.906116
vn 0.108380 0.831493 0.544860
vn 0.353548 -0.382712 0.853543
vn 0.162207 -0.555605 0.815471
vn 0.212594 0.831493 0.513248
vn 0.137944 0.707138 0.693489
vn 0.137944 -0.707138 0.693489
vn 0.162207 0.555605 0.815471
vn 0.212594 -0.831493 0.513248
vn 0.270586 -0.707139 0.653252
vn 0.318180 0.555605 0.768157
vn 0.108380 0.831493 0.544860
vn 0.000000 0.923893 0.382651
vn -0.000000 0.831493 0.555535
vn -0.000000 -0.382713 0.923867
vn -0.000000 -0.555605 0.831446
vn 0.137944 0.707138 0.693489
vn 0.108380 0.831493 0.544860
vn -0.000000 0.707138 0.707076
vn 0.137944 -0.707138 0.693489
vn -0.000000 -0.707138 0.707076
vn -0.000000 0.555605 0.831446
vn 0.108380 -0.831493 0.544860
vn -0.000000 -0.831493 0.555535
vn 0.180238 0.382713 0.906116
vn 0.162207 0.555605 0.815471
vn -0.000000 0.382713 0.923867
vn 0.108380 -0.831493 0.544860
vn 0.000000 -0.923893 0.382652
vn 0.180238 0.382713 0.906116
vn 0.000000 0.195107 0.980782
vn 0.038056 -0.980789 0.191324
vn 0.074651 -0.923893 0.375299
vn 0.000000 -0.980789 0.195072
vn 0.195090 0.000000 0.980785
vn 0.191341 0.195107 0.961936
vn 0.000000 0.000000 1.000000
vn 0.000000 0.980789 0.195072
vn 0.191341 -0.195107 0.961936
vn 0.000000 -0.195107 0.980782
vn 0.038056 0.980789 0.191324
vn 0.180238 -0.382713 0.906116
vn 0.191341 -0.195107 0.961936
vn -0.000000 0.382713 0.923867
vn -0.180238 0.382713 0.906115
vn -0.191341 0.195108 0.961936
vn 0.000000 -0.980789 0.195072
vn -0.074651 -0.923893 0.375299
vn -0.038056 -0.980789 0.191324
vn 0.000000 0.195107 0.980782
vn -0.195090 0.000000 0.980785
vn -0.038056 0.980789 0.191324
vn 0.000000 -0.980789 0.195072
vn -0.191341 -0.195108 0.961936
vn 0.000000 0.923893 0.382651
vn 0.000000 0.980789 0.195072
vn -0.074651 0.923893 0.375299
vn -0.180238 -0.382713 0.906115
vn -0.108380 0.831493 0.544860
vn -0.000000 -0.382713 0.923867
vn -0.162208 -0.555605 0.815470
vn -0.137944 0.707138 0.693489
vn -0.000000 -0.707138 0.707075
vn -0.137944 -0.707138 0.693489
vn -0.162208 0.555605 0.815470
vn -0.108380 -0.831493 0.544860
vn -0.000000 0.382713 0.923867
vn 0.000000 -0.923893 0.382652
vn -0.180238 -0.382713 0.906115
vn -0.353548 -0.382713 0.853542
vn -0.318181 -0.555605 0.768156
vn -0.137944 0.707138 0.693489
vn -0.212595 0.831493 0.513247
vn -0.270587 0.707138 0.653252
vn -0.137944 -0.707138 0.693489
vn -0.270587 -0.707138 0.653252
vn -0.162208 0.555605 0.815470
vn -0.318182 0.555605 0.768156
vn -0.137944 -0.707138 0.693489
vn -0.212595 -0.831493 0.513247
vn -0.162208 0.555605 0.815470
vn -0.353548 0.382714 0.853542
vn -0.074651 -0.923893 0.375299
vn -0.108380 -0.831493 0.544860
vn -0.146434 -0.923893 0.353524
vn -0.191341 0.195108 0.961936
vn -0.375328 0.195108 0.906124
vn -0.074651 -0.923893 0.375299
vn -0.074651 -0.980789 0.180223
vn -0.191341 0.195108 0.961936
vn -0.382683 0.000000 0.923880
vn -0.074651 0.980789 0.180223
vn -0.038056 -0.980789 0.191324
vn -0.375328 -0.195108 0.906124
vn -0.038056 0.980789 0.191324
vn -0.146434 0.923893 0.353524
vn -0.191341 -0.195108 0.961936
vn -0.108380 0.831493 0.544860
vn -0.212590 -0.923892 0.318165
vn -0.108375 -0.980789 0.162196
vn -0.382683 0.000000 0.923880
vn -0.544894 0.195106 0.815490
vn -0.555572 0.000000 0.831468
vn -0.108375 0.980789 0.162196
vn -0.000000 -1.000000 -0.000000
vn -0.074651 -0.980789 0.180223
vn -0.382683 0.000000 0.923880
vn -0.544894 -0.195106 0.815490
vn -0.074651 0.980789 0.180223
vn -0.212590 0.923892 0.318164
vn -0.353548 -0.382713 0.853542
vn -0.513273 -0.382714 0.768167
vn -0.146434 0.923893 0.353524
vn -0.308639 0.831493 0.461910
vn -0.353548 -0.382713 0.853542
vn -0.461927 -0.555605 0.691322
vn -0.270587 0.707138 0.653252
vn -0.392830 0.707138 0.587911
vn -0.270587 -0.707138 0.653252
vn -0.318181 -0.555605 0.768156
vn -0.392830 -0.707139 0.587911
vn -0.318182 0.555605 0.768156
vn -0.461927 0.555605 0.691322
vn -0.270587 -0.707138 0.653252
vn -0.308639 -0.831493 0.461911
vn -0.353548 0.382714 0.853542
vn -0.513273 0.382714 0.768167
vn -0.392830 -0.707139 0.587911
vn -0.461927 -0.555605 0.691322
vn -0.587922 -0.555605 0.587921
vn -0.499977 -0.707139 0.499977
vn -0.392830 0.707138 0.587911
vn -0.499978 0.707138 0.499977
vn -0.587923 0.555605 0.587921
vn -0.308639 -0.831493 0.461911
vn -0.392830 -0.707139 0.587911
vn -0.392822 -0.831493 0.392823
vn -0.653273 0.382714 0.653272
vn -0.212590 -0.923892 0.318165
vn -0.270576 -0.923892 0.270576
vn -0.513273 0.382714 0.768167
vn -0.693518 0.195105 0.693517
vn -0.108375 -0.980789 0.162196
vn -0.212590 -0.923892 0.318165
vn -0.137936 -0.980789 0.137936
vn -0.707108 0.000000 0.707106
vn -0.137936 0.980789 0.137936
vn -0.693519 -0.195105 0.693517
vn -0.270576 0.923892 0.270576
vn -0.513273 -0.382714 0.768167
vn -0.544894 -0.195106 0.815490
vn -0.653273 -0.382714 0.653272
vn -0.308639 0.831493 0.461910
vn -0.212590 0.923892 0.318164
vn -0.392822 0.831493 0.392823
vn -0.461927 -0.555605 0.691322
vn -0.513273 -0.382714 0.768167
vn -0.392830 0.707138 0.587911
vn -0.308639 0.831493 0.461910
vn -0.137936 0.980789 0.137936
vn -0.000000 1.000000 0.000000
vn -0.162197 0.980789 0.108375
vn -0.162197 -0.980789 0.108375
vn -0.831468 0.000000 0.555572
vn -0.815490 -0.195106 0.544895
vn -0.270576 0.923892 0.270576
vn -0.137936 0.980789 0.137936
vn -0.318164 0.923893 0.212589
vn -0.653273 -0.382714 0.653272
vn -0.693518 -0.195105 0.693517
vn -0.768167 -0.382714 0.513273
vn -0.392823 0.831493 0.392823
vn -0.270576 0.923892 0.270576
vn -0.461911 0.831493 0.308639
vn -0.587922 -0.555605 0.587921
vn -0.691323 -0.555604 0.461927
vn -0.392823 0.831493 0.392823
vn -0.587912 0.707138 0.392830
vn -0.499977 -0.707139 0.499977
vn -0.587922 -0.555605 0.587921
vn -0.587912 -0.707138 0.392830
vn -0.499978 0.707138 0.499977
vn -0.691323 0.555604 0.461927
vn -0.499977 -0.707139 0.499977
vn -0.461910 -0.831493 0.308639
vn -0.653273 0.382714 0.653272
vn -0.768167 0.382715 0.513273
vn -0.270576 -0.923892 0.270576
vn -0.392822 -0.831493 0.392823
vn -0.318164 -0.923893 0.212589
vn -0.693518 0.195105 0.693517
vn -0.815490 0.195106 0.544895
vn -0.137936 -0.980789 0.137936
vn -0.270576 -0.923892 0.270576
vn -0.707108 0.000000 0.707106
vn -0.693519 0.195105 0.693517
vn -0.691323 0.555604 0.461927
vn -0.587912 0.707138 0.392830
vn -0.653253 0.707138 0.270587
vn -0.768156 0.555605 0.318182
vn -0.653253 -0.707138 0.270586
vn -0.513247 -0.831493 0.212594
vn -0.768167 0.382715 0.513273
vn -0.853541 0.382714 0.353549
vn -0.353524 -0.923893 0.146435
vn -0.815490 0.195106 0.544895
vn -0.768167 0.382715 0.513273
vn -0.906125 0.195107 0.375328
vn -0.162197 -0.980789 0.108375
vn -0.318164 -0.923893 0.212589
vn -0.180223 -0.980789 0.074652
vn -0.831468 0.000000 0.555572
vn -0.815490 0.195106 0.544895
vn -0.923880 0.000000 0.382682
vn 0.000000 1.000000 0.000000
vn -0.180223 0.980789 0.074651
vn -0.000000 -1.000000 -0.000000
vn -0.162197 -0.980789 0.108375
vn -0.815490 -0.195106 0.544895
vn -0.831468 0.000000 0.555572
vn -0.906125 -0.195107 0.375328
vn -0.318164 0.923893 0.212589
vn -0.162197 0.980789 0.108375
vn -0.353524 0.923893 0.146435
vn -0.853542 -0.382714 0.353549
vn -0.461910 0.831493 0.308639
vn -0.318164 0.923893 0.212589
vn -0.513247 0.831493 0.212594
vn -0.768167 -0.382714 0.513273
vn -0.768156 -0.555605 0.318181
vn -0.980785 0.000000 0.195089
vn -0.961937 -0.195106 0.191341
vn -0.180223 0.980789 0.074651
vn -0.191323 0.980789 0.038056
vn -0.375299 0.923893 0.074651
vn -0.853542 -0.382714 0.353548
vn -0.906115 -0.382713 0.180238
vn -0.513247 0.831493 0.212594
vn -0.544860 0.831493 0.108380
vn -0.815470 -0.555605 0.162208
vn -0.693489 0.707138 0.137944
vn -0.768156 -0.555605 0.318181
vn -0.693489 -0.707138 0.137944
vn -0.815470 0.555605 0.162208
vn -0.544860 -0.831493 0.108380
vn -0.906115 0.382713 0.180238
vn -0.353524 -0.923893 0.146435
vn -0.513247 -0.831493 0.212594
vn -0.375299 -0.923893 0.074651
vn -0.853541 0.382714 0.353549
vn -0.961937 0.195106 0.191341
vn -0.180223 -0.980789 0.074652
vn -0.191323 -0.980789 0.038057
vn -0.923880 -0.000000 0.382682
vn -0.180223 -0.980789 0.074652
vn -0.693489 -0.707138 0.137944
vn -0.707076 -0.707138 0.000000
vn -0.555535 -0.831494 0.000000
vn -0.906115 0.382713 0.180238
vn -0.831447 0.555605 0.000000
vn -0.923867 0.382713 0.000000
vn -0.375299 -0.923893 0.074651
vn -0.544860 -0.831493 0.108380
vn -0.382651 -0.923893 0.000000
vn -0.906115 0.382713 0.180238
vn -0.980782 0.195106 0.000000
vn -0.191323 -0.980789 0.038057
vn -0.195072 -0.980789 0.000000
vn -0.980785 0.000000 0.195089
vn -0.961937 0.195106 0.191341
vn -1.000000 0.000000 0.000000
vn -0.195072 0.980789 0.000000
vn -0.000000 -1.000000 -0.000000
vn -0.191323 -0.980789 0.038057
vn -0.980785 -0.000000 0.195089
vn -0.980782 -0.195106 0.000000
vn -0.191323 0.980789 0.038056
vn -0.382651 0.923893 0.000000
vn -0.906115 -0.382713 0.180238
vn -0.961937 -0.195106 0.191341
vn -0.923867 -0.382713 0.000000
vn -0.555535 0.831493 0.000000
vn -0.831447 -0.555605 0.000000
vn -0.693489 0.707138 0.137944
vn -0.707076 0.707138 0.000000
vn -0.693489 -0.707138 0.137944
vn -0.815470 -0.555605 0.162208
vn -0.815470 0.555605 0.162208
vn -0.693489 0.707138 0.137944
vn -0.382651 0.923893 0.000000
vn -0.191323 0.980789 -0.038056
vn -0.375299 0.923893 -0.074651
vn -0.923867 -0.382713 0.000000
vn -0.961937 -0.195106 -0.191342
vn -0.906115 -0.382713 -0.180238
vn -0.555535 0.831493 0.000000
vn -0.544860 0.831493 -0.108381
vn -0.831447 -0.555605 0.000000
vn -0.815470 -0.555605 -0.162208
vn -0.707076 0.707138 0.000000
vn -0.555535 0.831493 0.000000
vn -0.693489 0.707138 -0.137945
vn -0.707076 -0.707138 0.000000
vn -0.693489 -0.707138 -0.137945
vn -0.831447 0.555605 0.000000
vn -0.815470 0.555605 -0.162208
vn -0.544860 -0.831493 -0.108381
vn -0.923867 0.382713 0.000000
vn -0.906115 0.382713 -0.180238
vn -0.382651 -0.923893 0.000000
vn -0.555535 -0.831493 0.000000
vn -0.375299 -0.923893 -0.074652
vn -0.923867 0.382713 0.000000
vn -0.961937 0.195106 -0.191342
vn -0.195072 -0.980789 0.000000
vn -0.382651 -0.923893 0.000000
vn -0.191323 -0.980789 -0.038057
vn -0.980785 0.000000 -0.195091
vn -0.195072 0.980789 0.000000
vn -0.000000 -1.000000 -0.000000
vn -0.195072 -0.980789 0.000000
vn -0.980782 -0.195106 0.000000
vn -0.815470 0.555605 -0.162208
vn -0.768156 0.555605 -0.318181
vn -0.853542 0.382713 -0.353549
vn -0.375299 -0.923893 -0.074652
vn -0.544860 -0.831493 -0.108381
vn -0.513247 -0.831493 -0.212595
vn -0.353524 -0.923893 -0.146435
vn -0.961937 0.195106 -0.191342
vn -0.906115 0.382713 -0.180238
vn -0.906125 0.195106 -0.375328
vn -0.180222 -0.980789 -0.074652
vn -0.961937 0.195106 -0.191342
vn -0.923880 0.000000 -0.382682
vn -0.180222 0.980789 -0.074652
vn -0.191323 -0.980789 -0.038057
vn -0.961937 -0.195106 -0.191342
vn -0.906125 -0.195106 -0.375328
vn -0.375299 0.923893 -0.074651
vn -0.191323 0.980789 -0.038056
vn -0.353524 0.923893 -0.146436
vn -0.906115 -0.382713 -0.180238
vn -0.961937 -0.195106 -0.191342
vn -0.853542 -0.382713 -0.353549
vn -0.513247 0.831493 -0.212595
vn -0.815470 -0.555605 -0.162208
vn -0.768156 -0.555605 -0.318181
vn -0.544860 0.831493 -0.108381
vn -0.653252 0.707139 -0.270586
vn -0.693489 -0.707138 -0.137945
vn -0.653252 -0.707139 -0.270586
vn -0.815470 0.555605 -0.162208
vn -0.693489 0.707138 -0.137945
vn -0.544860 -0.831493 -0.108381
vn -0.906125 -0.195106 -0.375328
vn -0.815490 -0.195106 -0.544895
vn -0.768167 -0.382713 -0.513274
vn -0.513247 0.831493 -0.212595
vn -0.318164 0.923892 -0.212589
vn -0.461911 0.831493 -0.308638
vn -0.768156 -0.555605 -0.318181
vn -0.853542 -0.382713 -0.353549
vn -0.691323 -0.555604 -0.461927
vn -0.513247 0.831493 -0.212595
vn -0.587911 0.707139 -0.392829
vn -0.653251 -0.707139 -0.270586
vn -0.768156 -0.555605 -0.318182
vn -0.587911 -0.707139 -0.392829
vn -0.653251 0.707139 -0.270586
vn -0.691323 0.555604 -0.461927
vn -0.513247 -0.831493 -0.212595
vn -0.461911 -0.831493 -0.308638
vn -0.768156 0.555605 -0.318181
vn -0.768167 0.382713 -0.513274
vn -0.513247 -0.831493 -0.212595
vn -0.318165 -0.923893 -0.212589
vn -0.906125 0.195106 -0.375328
vn -0.853542 0.382713 -0.353549
vn -0.815490 0.195106 -0.544895
vn -0.353524 -0.923893 -0.146435
vn -0.162197 -0.980789 -0.108375
vn -0.906125 0.195106 -0.375328
vn -0.831468 -0.000000 -0.555572
vn 0.000000 1.000000 -0.000000
vn -0.162197 0.980789 -0.108375
vn -0.000000 -1.000000 -0.000000
vn -0.180222 -0.980789 -0.074652
vn -0.906125 -0.195106 -0.375328
vn -0.353524 0.923893 -0.146436
vn -0.180222 0.980789 -0.074652
vn -0.318165 -0.923893 -0.212589
vn -0.392823 -0.831493 -0.392822
vn -0.270576 -0.923892 -0.270576
vn -0.815490 0.195106 -0.544895
vn -0.768167 0.382713 -0.513274
vn -0.653273 0.382713 -0.653273
vn -0.693518 0.195105 -0.693518
vn -0.162197 -0.980789 -0.108375
vn -0.137936 -0.980789 -0.137936
vn -0.831468 -0.000000 -0.555572
vn -0.707106 -0.000000 -0.707107
vn -0.162197 0.980789 -0.108375
vn -0.000000 1.000000 -0.000000
vn -0.137936 0.980789 -0.137935
vn -0.831468 -0.000000 -0.555572
vn -0.693518 -0.195105 -0.693518
vn -0.318164 0.923892 -0.212589
vn -0.270576 0.923892 -0.270576
vn -0.768167 -0.382713 -0.513274
vn -0.815490 -0.195106 -0.544895
vn -0.653273 -0.382713 -0.653273
vn -0.318164 0.923892 -0.212589
vn -0.392823 0.831493 -0.392822
vn -0.768167 -0.382713 -0.513274
vn -0.587921 -0.555604 -0.587922
vn -0.587911 0.707139 -0.392829
vn -0.499977 0.707139 -0.499977
vn -0.587911 -0.707139 -0.392829
vn -0.499977 -0.707139 -0.499977
vn -0.691323 0.555604 -0.461927
vn -0.587921 0.555604 -0.587922
vn -0.461911 -0.831493 -0.308638
vn -0.587911 -0.707139 -0.392829
vn -0.691323 0.555604 -0.461927
vn -0.653273 -0.382713 -0.653273
vn -0.513273 -0.382714 -0.768167
vn -0.461927 -0.555604 -0.691323
vn -0.392823 0.831493 -0.392822
vn -0.308638 0.831493 -0.461911
vn -0.392829 0.707139 -0.587911
vn -0.499977 -0.707139 -0.499977
vn -0.587921 -0.555604 -0.587922
vn -0.392829 -0.707139 -0.587912
vn -0.587921 0.555604 -0.587922
vn -0.499977 0.707139 -0.499977
vn -0.461927 0.555604 -0.691323
vn -0.499977 -0.707139 -0.499978
vn -0.308638 -0.831493 -0.461911
vn -0.513273 0.382714 -0.768167
vn -0.392823 -0.831493 -0.392822
vn -0.212589 -0.923892 -0.318165
vn -0.653273 0.382713 -0.653273
vn -0.544895 0.195106 -0.815490
vn -0.108375 -0.980789 -0.162197
vn -0.707106 -0.000000 -0.707107
vn -0.555572 0.000000 -0.831468
vn 0.000000 1.000000 -0.000000
vn -0.108375 0.980789 -0.162196
vn -0.000000 -1.000000 -0.000000
vn -0.693518 -0.195105 -0.693518
vn -0.707106 -0.000000 -0.707107
vn -0.544895 -0.195106 -0.815490
vn -0.137936 0.980789 -0.137935
vn -0.212589 0.923892 -0.318165
vn -0.653273 -0.382713 -0.653273
vn -0.693518 -0.195105 -0.693518
vn -0.146435 -0.923892 -0.353525
vn -0.074651 -0.980789 -0.180223
vn -0.555572 0.000000 -0.831468
vn -0.544895 0.195106 -0.815490
vn -0.375328 0.195107 -0.906125
vn -0.382682 0.000000 -0.923880
vn -0.108375 0.980789 -0.162196
vn 0.000000 1.000000 -0.000000
vn -0.074651 0.980789 -0.180223
vn -0.000000 -1.000000 -0.000000
vn -0.108375 -0.980789 -0.162197
vn -0.375328 -0.195107 -0.906125
vn -0.146435 0.923892 -0.353525
vn -0.513273 -0.382714 -0.768167
vn -0.353549 -0.382714 -0.853542
vn -0.212595 0.831493 -0.513247
vn -0.461927 -0.555604 -0.691323
vn -0.513273 -0.382714 -0.768167
vn -0.318181 -0.555605 -0.768156
vn -0.392829 0.707139 -0.587912
vn -0.308638 0.831493 -0.461911
vn -0.270586 0.707138 -0.653252
vn -0.270586 -0.707138 -0.653252
vn -0.461927 0.555604 -0.691323
vn -0.318181 0.555605 -0.768156
vn -0.392829 -0.707139 -0.587912
vn -0.212595 -0.831493 -0.513247
vn -0.461927 0.555604 -0.691323
vn -0.353549 0.382714 -0.853542
vn -0.212589 -0.923892 -0.318165
vn -0.544895 0.195106 -0.815490
vn -0.270586 0.707138 -0.653252
vn -0.212595 0.831493 -0.513247
vn -0.108381 0.831494 -0.544860
vn -0.137946 0.707139 -0.693488
vn -0.270586 -0.707138 -0.653252
vn -0.318181 -0.555605 -0.768156
vn -0.162209 -0.555605 -0.815470
vn -0.137946 -0.707139 -0.693488
vn -0.270586 0.707138 -0.653252
vn -0.162209 0.555605 -0.815470
vn -0.270586 -0.707138 -0.653252
vn -0.108381 -0.831493 -0.544860
vn -0.318181 0.555604 -0.768156
vn -0.180239 0.382712 -0.906116
vn -0.212595 -0.831493 -0.513247
vn -0.074652 -0.923893 -0.375299
vn -0.191341 0.195106 -0.961937
vn -0.038056 -0.980789 -0.191324
vn -0.195090 0.000000 -0.980785
vn -0.074651 0.980789 -0.180223
vn -0.000000 1.000000 -0.000000
vn -0.038056 0.980789 -0.191324
vn -0.000000 -1.000000 -0.000000
vn -0.074651 -0.980789 -0.180223
vn -0.382682 0.000000 -0.923880
vn -0.191341 -0.195106 -0.961937
vn -0.146435 0.923892 -0.353525
vn -0.074651 0.980789 -0.180223
vn -0.074652 0.923893 -0.375299
vn -0.353549 -0.382714 -0.853542
vn -0.180239 -0.382712 -0.906116
vn -0.212595 0.831493 -0.513247
vn -0.146435 0.923892 -0.353525
vn -0.353549 -0.382714 -0.853542
vn -0.195090 0.000000 -0.980785
vn -0.191341 0.195106 -0.961937
vn -0.000003 0.000000 -1.000000
vn -0.038056 0.980789 -0.191324
vn -0.000000 1.000000 -0.000000
vn -0.000000 -1.000000 -0.000000
vn 0.000000 -0.980789 -0.195072
vn -0.191341 -0.195106 -0.961937
vn -0.074652 0.923893 -0.375299
vn 0.000000 0.980789 -0.195072
vn -0.191341 -0.195106 -0.961937
vn -0.000002 -0.195107 -0.980782
vn -0.000001 -0.382712 -0.923868
vn -0.074652 0.923893 -0.375299
vn -0.180239 -0.382712 -0.906116
vn -0.000001 -0.382712 -0.923868
vn -0.137946 -0.707139 -0.693488
vn -0.137946 0.707139 -0.693488
vn -0.000000 0.707139 -0.707075
vn -0.000000 0.555605 -0.831446
vn -0.000000 -0.707139 -0.707075
vn -0.180239 0.382712 -0.906116
vn -0.162209 0.555605 -0.815470
vn -0.000001 0.382712 -0.923868
vn -0.074652 -0.923893 -0.375299
vn -0.108381 -0.831493 -0.544860
vn -0.191341 0.195106 -0.961937
vn -0.180239 0.382712 -0.906116
vn -0.000002 0.195107 -0.980782
vn -0.038056 -0.980789 -0.191324
vn 0.000000 -0.923893 -0.382652
vn 0.000000 -0.980789 -0.195072
vt 0.750000 0.062500
vt 0.750000 0.125000
vt 0.718750 0.125000
vt 0.718750 0.062500
vt 0.750000 0.500000
vt 0.750000 0.562500
vt 0.718750 0.562500
vt 0.718750 0.500000
vt 0.750000 0.937500
vt 0.734375 1.000000
vt 0.718750 0.937500
vt 0.734375 0.000000
vt 0.750000 0.437500
vt 0.718750 0.437500
vt 0.750000 0.875000
vt 0.718750 0.875000
vt 0.750000 0.375000
vt 0.718750 0.375000
vt 0.750000 0.812500
vt 0.718750 0.812500
vt 0.750000 0.312500
vt 0.718750 0.312500
vt 0.750000 0.750000
vt 0.718750 0.750000
vt 0.750000 0.250000
vt 0.718750 0.250000
vt 0.750000 0.687500
vt 0.718750 0.687500
vt 0.750000 0.187500
vt 0.718750 0.187500
vt 0.750000 0.625000
vt 0.718750 0.625000
vt 0.687500 0.187500
vt 0.687500 0.125000
vt 0.687500 0.625000
vt 0.687500 0.562500
vt 0.687500 0.062500
vt 0.687500 0.500000
vt 0.703125 1.000000
vt 0.687500 0.937500
vt 0.703125 0.000000
vt 0.687500 0.437500
vt 0.687500 0.875000
vt 0.687500 0.375000
vt 0.687500 0.812500
vt 0.687500 0.312500
vt 0.687500 0.750000
vt 0.687500 0.250000
vt 0.687500 0.687500
vt 0.656250 0.875000
vt 0.656250 0.812500
vt 0.656250 0.375000
vt 0.656250 0.312500
vt 0.656250 0.750000
vt 0.656250 0.250000
vt 0.656250 0.687500
vt 0.656250 0.187500
vt 0.656250 0.625000
vt 0.656250 0.125000
vt 0.656250 0.562500
vt 0.656250 0.062500
vt 0.656250 0.500000
vt 0.671875 1.000000
vt 0.656250 0.937500
vt 0.671875 0.000000
vt 0.656250 0.437500
vt 0.625000 0.625000
vt 0.625000 0.562500
vt 0.625000 0.125000
vt 0.625000 0.062500
vt 0.625000 0.500000
vt 0.640625 1.000000
vt 0.625000 0.937500
vt 0.640625 0.000000
vt 0.625000 0.437500
vt 0.625000 0.875000
vt 0.625000 0.375000
vt 0.625000 0.812500
vt 0.625000 0.312500
vt 0.625000 0.750000
vt 0.625000 0.250000
vt 0.625000 0.687500
vt 0.625000 0.187500
vt 0.593750 0.375000
vt 0.593750 0.312500
vt 0.593750 0.812500
vt 0.593750 0.750000
vt 0.593750 0.250000
vt 0.593750 0.687500
vt 0.593750 0.187500
vt 0.593750 0.625000
vt 0.593750 0.125000
vt 0.593750 0.562500
vt 0.593750 0.062500
vt 0.593750 0.500000
vt 0.609375 1.000000
vt 0.593750 0.937500
vt 0.609375 0.000000
vt 0.593750 0.437500
vt 0.593750 0.875000
vt 0.562500 0.125000
vt 0.562500 0.062500
vt 0.562500 0.562500
vt 0.562500 0.500000
vt 0.578125 1.000000
vt 0.562500 0.937500
vt 0.578125 0.000000
vt 0.562500 0.437500
vt 0.562500 0.875000
vt 0.562500 0.375000
vt 0.562500 0.812500
vt 0.562500 0.312500
vt 0.562500 0.750000
vt 0.562500 0.250000
vt 0.562500 0.687500
vt 0.562500 0.187500
vt 0.562500 0.625000
vt 0.531250 0.812500
vt 0.531250 0.750000
vt 0.531250 0.312500
vt 0.531250 0.250000
vt 0.531250 0.687500
vt 0.531250 0.187500
vt 0.531250 0.625000
vt 0.531250 0.125000
vt 0.531250 0.562500
vt 0.531250 0.062500
vt 0.531250 0.500000
vt 0.546875 1.000000
vt 0.531250 0.937500
vt 0.546875 0.000000
vt 0.531250 0.437500
vt 0.531250 0.875000
vt 0.531250 0.375000
vt 0.500000 0.562500
vt 0.500000 0.500000
vt 0.515625 1.000000
vt 0.500000 0.937500
vt 0.515625 0.000000
vt 0.500000 0.062500
vt 0.500000 0.437500
vt 0.500000 0.875000
vt 0.500000 0.375000
vt 0.500000 0.812500
vt 0.500000 0.312500
vt 0.500000 0.750000
vt 0.500000 0.250000
vt 0.500000 0.687500
vt 0.500000 0.187500
vt 0.500000 0.625000
vt 0.500000 0.125000
vt 0.468750 0.312500
vt 0.468750 0.250000
vt 0.468750 0.750000
vt 0.468750 0.687500
vt 0.468750 0.187500
vt 0.468750 0.625000
vt 0.468750 0.125000
vt 0.468750 0.562500
vt 0.468750 0.062500
vt 0.468750 0.500000
vt 0.484375 1.000000
vt 0.468750 0.937500
vt 0.484375 0.000000
vt 0.468750 0.437500
vt 0.468750 0.875000
vt 0.468750 0.375000
vt 0.468750 0.812500
vt 0.453125 0.000000
vt 0.437500 0.062500
vt 0.437500 0.500000
vt 0.437500 0.437500
vt 0.437500 0.937500
vt 0.437500 0.875000
vt 0.437500 0.375000
vt 0.437500 0.812500
vt 0.437500 0.312500
vt 0.437500 0.750000
vt 0.437500 0.250000
vt 0.437500 0.687500
vt 0.437500 0.187500
vt 0.437500 0.625000
vt 0.437500 0.125000
vt 0.437500 0.562500
vt 0.453125 1.000000
vt 0.406250 0.250000
vt 0.406250 0.187500
vt 0.406250 0.687500
vt 0.406250 0.625000
vt 0.406250 0.125000
vt 0.406250 0.562500
vt 0.406250 0.062500
vt 0.406250 0.500000
vt 0.421875 1.000000
vt 0.406250 0.937500
vt 0.421875 0.000000
vt 0.406250 0.437500
vt 0.406250 0.875000
vt 0.406250 0.375000
vt 0.406250 0.812500
vt 0.406250 0.312500
vt 0.406250 0.750000
vt 0.375000 0.937500
vt 0.375000 0.875000
vt 0.375000 0.437500
vt 0.375000 0.375000
vt 0.375000 0.812500
vt 0.375000 0.312500
vt 0.375000 0.750000
vt 0.375000 0.250000
vt 0.375000 0.687500
vt 0.375000 0.187500
vt 0.375000 0.625000
vt 0.375000 0.125000
vt 0.375000 0.562500
vt 0.375000 0.062500
vt 0.375000 0.500000
vt 0.390625 1.000000
vt 0.390625 0.000000
vt 0.343750 0.687500
vt 0.343750 0.625000
vt 0.343750 0.187500
vt 0.343750 0.125000
vt 0.343750 0.562500
vt 0.343750 0.062500
vt 0.343750 0.500000
vt 0.359375 1.000000
vt 0.343750 0.937500
vt 0.359375 0.000000
vt 0.343750 0.437500
vt 0.343750 0.875000
vt 0.343750 0.375000
vt 0.343750 0.812500
vt 0.343750 0.312500
vt 0.343750 0.750000
vt 0.343750 0.250000
vt 0.312500 0.437500
vt 0.312500 0.375000
vt 0.312500 0.875000
vt 0.312500 0.812500
vt 0.312500 0.312500
vt 0.312500 0.750000
vt 0.312500 0.250000
vt 0.312500 0.687500
vt 0.312500 0.187500
vt 0.312500 0.625000
vt 0.312500 0.125000
vt 0.312500 0.562500
vt 0.312500 0.062500
vt 0.312500 0.500000
vt 0.328125 1.000000
vt 0.312500 0.937500
vt 0.328125 0.000000
vt 0.281250 0.187500
vt 0.281250 0.125000
vt 0.281250 0.625000
vt 0.281250 0.562500
vt 0.281250 0.062500
vt 0.281250 0.500000
vt 0.296875 1.000000
vt 0.281250 0.937500
vt 0.296875 0.000000
vt 0.281250 0.437500
vt 0.281250 0.875000
vt 0.281250 0.375000
vt 0.281250 0.812500
vt 0.281250 0.312500
vt 0.281250 0.750000
vt 0.281250 0.250000
vt 0.281250 0.687500
vt 0.250000 0.875000
vt 0.250000 0.812500
vt 0.250000 0.375000
vt 0.250000 0.312500
vt 0.250000 0.750000
vt 0.250000 0.250000
vt 0.250000 0.687500
vt 0.250000 0.187500
vt 0.250000 0.625000
vt 0.250000 0.125000
vt 0.250000 0.562500
vt 0.250000 0.062500
vt 0.250000 0.500000
vt 0.265625 1.000000
vt 0.250000 0.937500
vt 0.265625 0.000000
vt 0.250000 0.437500
vt 0.218750 0.625000
vt 0.218750 0.562500
vt 0.218750 0.125000
vt 0.218750 0.062500
vt 0.218750 0.500000
vt 0.234375 1.000000
vt 0.218750 0.937500
vt 0.234375 0.000000
vt 0.218750 0.437500
vt 0.218750 0.875000
vt 0.218750 0.375000
vt 0.218750 0.812500
vt 0.218750 0.312500
vt 0.218750 0.750000
vt 0.218750 0.250000
vt 0.218750 0.687500
vt 0.218750 0.187500
vt 0.187500 0.375000
vt 0.187500 0.312500
vt 0.187500 0.812500
vt 0.187500 0.750000
vt 0.187500 0.250000
vt 0.187500 0.687500
vt 0.187500 0.187500
vt 0.187500 0.625000
vt 0.187500 0.125000
vt 0.187500 0.562500
vt 0.187500 0.062500
vt 0.187500 0.500000
vt 0.203125 1.000000
vt 0.187500 0.937500
vt 0.203125 0.000000
vt 0.187500 0.437500
vt 0.187500 0.875000
vt 0.156250 0.125000
vt 0.156250 0.062500
vt 0.156250 0.562500
vt 0.156250 0.500000
vt 0.171875 1.000000
vt 0.156250 0.937500
vt 0.171875 0.000000
vt 0.156250 0.437500
vt 0.156250 0.875000
vt 0.156250 0.375000
vt 0.156250 0.812500
vt 0.156250 0.312500
vt 0.156250 0.750000
vt 0.156250 0.250000
vt 0.156250 0.687500
vt 0.156250 0.187500
vt 0.156250 0.625000
vt 0.125000 0.312500
vt 0.125000 0.250000
vt 0.125000 0.750000
vt 0.125000 0.687500
vt 0.125000 0.187500
vt 0.125000 0.625000
vt 0.125000 0.125000
vt 0.125000 0.562500
vt 0.125000 0.062500
vt 0.125000 0.500000
vt 0.140625 1.000000
vt 0.125000 0.937500
vt 0.140625 0.000000
vt 0.125000 0.437500
vt 0.125000 0.875000
vt 0.125000 0.375000
vt 0.125000 0.812500
vt 0.109375 1.000000
vt 0.093750 0.937500
vt 0.109375 0.000000
vt 0.093750 0.062500
vt 0.093750 0.500000
vt 0.093750 0.437500
vt 0.093750 0.875000
vt 0.093750 0.375000
vt 0.093750 0.812500
vt 0.093750 0.312500
vt 0.093750 0.750000
vt 0.093750 0.250000
vt 0.093750 0.687500
vt 0.093750 0.187500
vt 0.093750 0.625000
vt 0.093750 0.125000
vt 0.093750 0.562500
vt 0.062500 0.750000
vt 0.062500 0.687500
vt 0.062500 0.250000
vt 0.062500 0.187500
vt 0.062500 0.625000
vt 0.062500 0.125000
vt 0.062500 0.562500
vt 0.062500 0.062500
vt 0.062500 0.500000
vt 0.078125 1.000000
vt 0.062500 0.937500
vt 0.078125 0.000000
vt 0.062500 0.437500
vt 0.062500 0.875000
vt 0.062500 0.375000
vt 0.062500 0.812500
vt 0.062500 0.312500
vt 0.031250 0.500000
vt 0.031250 0.437500
vt 0.031250 0.937500
vt 0.031250 0.875000
vt 0.031250 0.375000
vt 0.031250 0.812500
vt 0.031250 0.312500
vt 0.031250 0.750000
vt 0.031250 0.250000
vt 0.031250 0.687500
vt 0.031250 0.187500
vt 0.031250 0.625000
vt 0.031250 0.125000
vt 0.031250 0.562500
vt 0.031250 0.062500
vt 0.046875 1.000000
vt 0.046875 0.000000
vt 0.000000 0.250000
vt 0.000000 0.187500
vt 0.000000 0.687500
vt 0.000000 0.625000
vt 0.000000 0.125000
vt 0.000000 0.562500
vt 0.000000 0.062500
vt 0.000000 0.500000
vt 0.015625 1.000000
vt 0.000000 0.937500
vt 0.015625 0.000000
vt 0.000000 0.437500
vt 0.000000 0.875000
vt 0.000000 0.375000
vt 0.000000 0.812500
vt 0.000000 0.312500
vt 0.000000 0.750000
vt 1.000000 0.875000
vt 1.000000 0.937500
vt 0.968750 0.937500
vt 0.968750 0.875000
vt 1.000000 0.375000
vt 1.000000 0.437500
vt 0.968750 0.437500
vt 0.968750 0.375000
vt 1.000000 0.812500
vt 0.968750 0.812500
vt 1.000000 0.312500
vt 0.968750 0.312500
vt 1.000000 0.750000
vt 0.968750 0.750000
vt 1.000000 0.250000
vt 0.968750 0.250000
vt 1.000000 0.687500
vt 0.968750 0.687500
vt 1.000000 0.187500
vt 0.968750 0.187500
vt 1.000000 0.625000
vt 0.968750 0.625000
vt 1.000000 0.125000
vt 0.968750 0.125000
vt 1.000000 0.562500
vt 0.968750 0.562500
vt 1.000000 0.062500
vt 0.968750 0.062500
vt 1.000000 0.500000
vt 0.968750 0.500000
vt 0.984375 1.000000
vt 0.984375 0.000000
vt 0.937500 0.687500
vt 0.937500 0.625000
vt 0.937500 0.187500
vt 0.937500 0.125000
vt 0.937500 0.562500
vt 0.937500 0.062500
vt 0.937500 0.500000
vt 0.953125 1.000000
vt 0.937500 0.937500
vt 0.953125 0.000000
vt 0.937500 0.437500
vt 0.937500 0.875000
vt 0.937500 0.375000
vt 0.937500 0.812500
vt 0.937500 0.312500
vt 0.937500 0.750000
vt 0.937500 0.250000
vt 0.906250 0.437500
vt 0.906250 0.375000
vt 0.906250 0.875000
vt 0.906250 0.812500
vt 0.906250 0.312500
vt 0.906250 0.750000
vt 0.906250 0.250000
vt 0.906250 0.687500
vt 0.906250 0.187500
vt 0.906250 0.625000
vt 0.906250 0.125000
vt 0.906250 0.562500
vt 0.906250 0.062500
vt 0.906250 0.500000
vt 0.921875 1.000000
vt 0.906250 0.937500
vt 0.921875 0.000000
vt 0.875000 0.187500
vt 0.875000 0.125000
vt 0.875000 0.625000
vt 0.875000 0.562500
vt 0.875000 0.062500
vt 0.875000 0.500000
vt 0.890625 1.000000
vt 0.875000 0.937500
vt 0.890625 0.000000
vt 0.875000 0.437500
vt 0.875000 0.875000
vt 0.875000 0.375000
vt 0.875000 0.812500
vt 0.875000 0.312500
vt 0.875000 0.750000
vt 0.875000 0.250000
vt 0.875000 0.687500
vt 0.843750 0.375000
vt 0.843750 0.312500
vt 0.843750 0.812500
vt 0.843750 0.750000
vt 0.843750 0.250000
vt 0.843750 0.687500
vt 0.843750 0.187500
vt 0.843750 0.625000
vt 0.843750 0.125000
vt 0.843750 0.562500
vt 0.843750 0.062500
vt 0.843750 0.500000
vt 0.859375 1.000000
vt 0.843750 0.937500
vt 0.859375 0.000000
vt 0.843750 0.437500
vt 0.843750 0.875000
vt 0.812500 0.125000
vt 0.812500 0.062500
vt 0.812500 0.562500
vt 0.812500 0.500000
vt 0.828125 1.000000
vt 0.812500 0.937500
vt 0.828125 0.000000
vt 0.812500 0.437500
vt 0.812500 0.875000
vt 0.812500 0.375000
vt 0.812500 0.812500
vt 0.812500 0.312500
vt 0.812500 0.750000
vt 0.812500 0.250000
vt 0.812500 0.687500
vt 0.812500 0.187500
vt 0.812500 0.625000
vt 0.781250 0.812500
vt 0.781250 0.750000
vt 0.781250 0.312500
vt 0.781250 0.250000
vt 0.781250 0.687500
vt 0.781250 0.187500
vt 0.781250 0.625000
vt 0.781250 0.125000
vt 0.781250 0.562500
vt 0.781250 0.062500
vt 0.781250 0.500000
vt 0.796875 1.000000
vt 0.781250 0.937500
vt 0.796875 0.000000
vt 0.781250 0.437500
vt 0.781250 0.875000
vt 0.781250 0.375000
vt 0.765625 1.000000
vt 0.765625 0.000000
f 1/1/1 2/2/2 3/3/3 4/4/4
f 5/5/5 6/6/6 7/7/7 8/8/8
f 9/9/9 10/10/10 11/11/11
f 12/12/12 1/1/1 4/4/4
f 13/13/13 5/5/5 8/8/8 14/14/14
f 15/15/15 9/9/9 11/11/11 16/16/16
f 17/17/17 13/13/13 14/14/14 18/18/18
f 19/19/19 15/15/15 16/16/16 20/20/20
f 21/21/21 17/17/17 18/18/18 22/22/22
f 23/23/23 19/19/19 20/20/20 24/24/24
f 25/25/25 21/21/21 22/22/22 26/26/26
f 27/27/27 23/23/23 24/24/24 28/28/28
f 29/29/29 25/25/25 26/26/26 30/30/30
f 31/31/31 27/27/27 28/28/28 32/32/32
f 2/2/2 29/29/29 30/30/30 3/3/3
f 6/6/6 31/31/31 32/32/32 7/7/7
f 3/3/3 30/30/33 33/33/34 34/34/35
f 7/7/7 32/32/32 35/35/36 36/36/37
f 4/4/38 3/3/3 34/34/35 37/37/39
f 8/8/40 7/7/41 36/36/37 38/38/42
f 11/11/11 10/39/10 39/40/43
f 12/41/12 4/4/44 37/37/39
f 14/14/14 8/8/45 38/38/42 40/42/46
f 16/16/47 11/11/48 39/40/43 41/43/49
f 18/18/18 14/14/14 40/42/46 42/44/50
f 20/20/20 16/16/47 41/43/49 43/45/51
f 22/22/52 18/18/53 42/44/50 44/46/54
f 24/24/24 20/20/55 43/45/51 45/47/56
f 26/26/26 22/22/22 44/46/54 46/48/57
f 28/28/58 24/24/24 45/47/56 47/49/59
f 30/30/33 26/26/60 46/48/57 33/33/34
f 32/32/32 28/28/58 47/49/59 35/35/36
f 43/45/51 41/43/61 48/50/62 49/51/63
f 44/46/54 42/44/64 50/52/65 51/53/66
f 45/47/56 43/45/67 49/51/63 52/54/68
f 46/48/57 44/46/54 51/53/66 53/55/69
f 47/49/59 45/47/70 52/54/68 54/56/71
f 33/33/34 46/48/57 53/55/69 55/57/72
f 35/35/36 47/49/59 54/56/71 56/58/73
f 34/34/74 33/33/75 55/57/72 57/59/76
f 36/36/77 35/35/36 56/58/73 58/60/78
f 37/37/79 34/34/80 57/59/76 59/61/81
f 38/38/42 36/36/37 58/60/78 60/62/82
f 39/40/83 10/63/10 61/64/84
f 12/65/12 37/37/85 59/61/81
f 40/42/46 38/38/42 60/62/82 62/66/86
f 41/43/49 39/40/87 61/64/84 48/50/62
f 42/44/88 40/42/46 62/66/86 50/52/65
f 58/60/78 56/58/73 63/67/89 64/68/90
f 59/61/91 57/59/76 65/69/92 66/70/93
f 60/62/94 58/60/95 64/68/90 67/71/96
f 61/64/97 10/72/10 68/73/98
f 12/74/12 59/61/99 66/70/93
f 62/66/86 60/62/94 67/71/96 69/75/100
f 48/50/101 61/64/102 68/73/98 70/76/103
f 50/52/104 62/66/86 69/75/100 71/77/105
f 49/51/106 48/50/107 70/76/103 72/78/108
f 51/53/109 50/52/104 71/77/105 73/79/110
f 52/54/68 49/51/111 72/78/108 74/80/112
f 53/55/69 51/53/113 73/79/110 75/81/114
f 54/56/71 52/54/68 74/80/112 76/82/115
f 55/57/72 53/55/116 75/81/114 77/83/117
f 56/58/118 54/56/119 76/82/115 63/67/89
f 57/59/120 55/57/121 77/83/117 65/69/92
f 73/79/110 71/77/105 78/84/122 79/85/123
f 74/80/112 72/78/108 80/86/124 81/87/125
f 75/81/126 73/79/127 79/85/123 82/88/128
f 76/82/129 74/80/130 81/87/125 83/89/131
f 77/83/117 75/81/132 82/88/128 84/90/133
f 63/67/134 76/82/135 83/89/131 85/91/136
f 65/69/137 77/83/138 84/90/133 86/92/139
f 64/68/140 63/67/141 85/91/136 87/93/142
f 66/70/143 65/69/144 86/92/139 88/94/145
f 67/71/96 64/68/140 87/93/142 89/95/146
f 68/73/98 10/96/147 90/97/148
f 12/98/12 66/70/149 88/94/145
f 69/75/100 67/71/96 89/95/146 91/99/150
f 70/76/103 68/73/151 90/97/148 92/100/152
f 71/77/105 69/75/153 91/99/150 78/84/122
f 72/78/154 70/76/103 92/100/152 80/86/124
f 88/94/155 86/92/139 93/101/156 94/102/157
f 89/95/146 87/93/142 95/103/158 96/104/159
f 90/97/148 10/105/147 97/106/160
f 12/107/12 88/94/145 94/102/157
f 91/99/150 89/95/146 96/104/159 98/108/161
f 92/100/152 90/97/162 97/106/160 99/109/163
f 78/84/122 91/99/164 98/108/161 100/110/165
f 80/86/124 92/100/166 99/109/163 101/111/167
f 79/85/123 78/84/168 100/110/165 102/112/169
f 81/87/170 80/86/171 101/111/167 103/113/172
f 82/88/128 79/85/173 102/112/169 104/114/174
f 83/89/131 81/87/175 103/113/172 105/115/176
f 84/90/133 82/88/177 104/114/174 106/116/178
f 85/91/136 83/89/131 105/115/176 107/117/179
f 86/92/180 84/90/181 106/116/178 93/101/156
f 87/93/142 85/91/136 107/117/179 95/103/158
f 103/113/182 101/111/183 108/118/184 109/119/185
f 104/114/186 102/112/187 110/120/188 111/121/189
f 105/115/190 103/113/182 109/119/185 112/122/191
f 106/116/192 104/114/186 111/121/189 113/123/193
f 107/117/179 105/115/176 112/122/191 114/124/194
f 93/101/156 106/116/192 113/123/193 115/125/195
f 95/103/158 107/117/179 114/124/194 116/126/196
f 94/102/197 93/101/198 115/125/195 117/127/199
f 96/104/200 95/103/158 116/126/196 118/128/201
f 97/106/202 10/129/10 119/130/203
f 12/131/12 94/102/157 117/127/199
f 98/108/204 96/104/205 118/128/201 120/132/206
f 99/109/207 97/106/202 119/130/203 121/133/208
f 100/110/209 98/108/210 120/132/206 122/134/211
f 101/111/212 99/109/213 121/133/208 108/118/184
f 102/112/214 100/110/209 122/134/211 110/120/188
f 118/128/215 116/126/196 123/135/216 124/136/217
f 119/130/218 10/137/10 125/138/219
f 12/139/12 117/127/199 126/140/220
f 120/132/206 118/128/201 124/136/217 127/141/221
f 121/133/208 119/130/222 125/138/219 128/142/223
f 122/134/224 120/132/206 127/141/221 129/143/225
f 108/118/226 121/133/227 128/142/223 130/144/228
f 110/120/188 122/134/229 129/143/225 131/145/230
f 109/119/231 108/118/184 130/144/228 132/146/232
f 111/121/233 110/120/234 131/145/230 133/147/235
f 112/122/236 109/119/237 132/146/232 134/148/238
f 113/123/193 111/121/189 133/147/235 135/149/239
f 114/124/194 112/122/240 134/148/238 136/150/241
f 115/125/195 113/123/242 135/149/239 137/151/243
f 116/126/244 114/124/194 136/150/241 123/135/216
f 117/127/245 115/125/195 137/151/243 126/140/220
f 133/147/246 131/145/247 138/152/248 139/153/249
f 134/148/250 132/146/251 140/154/252 141/155/253
f 135/149/239 133/147/254 139/153/249 142/156/255
f 136/150/256 134/148/250 141/155/253 143/157/257
f 137/151/243 135/149/258 142/156/255 144/158/259
f 123/135/216 136/150/241 143/157/257 145/159/260
f 126/140/261 137/151/243 144/158/259 146/160/262
f 124/136/217 123/135/263 145/159/260 147/161/264
f 125/138/265 10/162/10 148/163/266
f 12/164/267 126/140/268 146/160/262
f 127/141/269 124/136/217 147/161/264 149/165/270
f 128/142/223 125/138/271 148/163/266 150/166/272
f 129/143/225 127/141/221 149/165/270 151/167/273
f 130/144/274 128/142/275 150/166/272 152/168/276
f 131/145/247 129/143/225 151/167/273 138/152/248
f 132/146/251 130/144/277 152/168/276 140/154/252
f 12/169/12 146/160/262 153/170/278
f 149/165/279 147/161/280 154/171/281 155/172/282
f 150/166/272 148/163/266 156/173/283 157/174/284
f 151/167/285 149/165/279 155/172/282 158/175/286
f 152/168/287 150/166/288 157/174/284 159/176/289
f 138/152/290 151/167/273 158/175/286 160/177/291
f 140/154/292 152/168/293 159/176/289 161/178/294
f 139/153/249 138/152/295 160/177/291 162/179/296
f 141/155/297 140/154/298 161/178/294 163/180/299
f 142/156/255 139/153/300 162/179/296 164/181/301
f 143/157/302 141/155/303 163/180/299 165/182/304
f 144/158/259 142/156/305 164/181/301 166/183/306
f 145/159/307 143/157/302 165/182/304 167/184/308
f 146/160/262 144/158/309 166/183/306 153/170/278
f 147/161/310 145/159/260 167/184/308 154/171/281
f 148/163/311 10/185/10 156/173/283
f 164/181/301 162/179/312 168/186/313 169/187/314
f 165/182/304 163/180/299 170/188/315 171/189/316
f 166/183/317 164/181/301 169/187/314 172/190/318
f 167/184/319 165/182/304 171/189/316 173/191/320
f 153/170/278 166/183/317 172/190/318 174/192/321
f 154/171/281 167/184/322 173/191/320 175/193/323
f 156/173/283 10/194/10 176/195/324
f 12/196/12 153/170/325 174/192/321
f 155/172/326 154/171/281 175/193/323 177/197/327
f 157/174/284 156/173/328 176/195/324 178/198/329
f 158/175/330 155/172/331 177/197/327 179/199/332
f 159/176/333 157/174/284 178/198/329 180/200/334
f 160/177/335 158/175/336 179/199/332 181/201/337
f 161/178/338 159/176/333 180/200/334 182/202/339
f 162/179/296 160/177/340 181/201/337 168/186/313
f 163/180/341 161/178/342 182/202/339 170/188/315
f 178/198/329 176/195/343 183/203/344 184/204/345
f 179/199/332 177/197/327 185/205/346 186/206/347
f 180/200/348 178/198/349 184/204/345 187/207/350
f 181/201/351 179/199/332 186/206/347 188/208/352
f 182/202/339 180/200/353 187/207/350 189/209/354
f 168/186/313 181/201/355 188/208/352 190/210/356
f 170/188/357 182/202/339 189/209/354 191/211/358
f 169/187/359 168/186/360 190/210/356 192/212/361
f 171/189/316 170/188/362 191/211/358 193/213/363
f 172/190/364 169/187/365 192/212/361 194/214/366
f 173/191/367 171/189/368 193/213/363 195/215/369
f 174/192/321 172/190/370 194/214/366 196/216/371
f 175/193/323 173/191/320 195/215/369 197/217/372
f 176/195/373 10/218/10 183/203/344
f 12/219/12 174/192/374 196/216/371
f 177/197/327 175/193/323 197/217/372 185/205/346
f 193/213/363 191/211/375 198/220/376 199/221/377
f 194/214/366 192/212/378 200/222/379 201/223/380
f 195/215/381 193/213/382 199/221/377 202/224/383
f 196/216/384 194/214/385 201/223/380 203/225/386
f 197/217/372 195/215/387 202/224/383 204/226/388
f 183/203/389 10/227/10 205/228/390
f 12/229/12 196/216/384 203/225/386
f 185/205/391 197/217/372 204/226/388 206/230/392
f 184/204/345 183/203/389 205/228/390 207/231/393
f 186/206/347 185/205/394 206/230/392 208/232/395
f 187/207/350 184/204/345 207/231/393 209/233/396
f 188/208/352 186/206/347 208/232/395 210/234/397
f 189/209/354 187/207/398 209/233/396 211/235/399
f 190/210/400 188/208/352 210/234/397 212/236/401
f 191/211/402 189/209/403 211/235/399 198/220/376
f 192/212/404 190/210/400 212/236/401 200/222/379
f 208/232/395 206/230/405 213/237/406 214/238/407
f 209/233/396 207/231/393 215/239/408 216/240/409
f 210/234/410 208/232/395 214/238/407 217/241/411
f 211/235/412 209/233/396 216/240/409 218/242/413
f 212/236/401 210/234/414 217/241/411 219/243/415
f 198/220/376 211/235/399 218/242/413 220/244/416
f 200/222/417 212/236/418 219/243/415 221/245/419
f 199/221/420 198/220/376 220/244/416 222/246/421
f 201/223/422 200/222/423 221/245/419 223/247/424
f 202/224/425 199/221/426 222/246/421 224/248/427
f 203/225/428 201/223/380 223/247/424 225/249/429
f 204/226/430 202/224/425 224/248/427 226/250/431
f 205/228/390 10/251/432 227/252/433
f 12/253/434 203/225/386 225/249/429
f 206/230/435 204/226/436 226/250/431 213/237/406
f 207/231/393 205/228/437 227/252/433 215/239/408
f 223/247/424 221/245/438 228/254/439 229/255/440
f 224/248/441 222/246/442 230/256/443 231/257/444
f 225/249/445 223/247/424 229/255/440 232/258/446
f 226/250/431 224/248/447 231/257/444 233/259/448
f 227/252/449 10/260/450 234/261/451
f 12/262/452 225/249/453 232/258/446
f 213/237/406 226/250/431 233/259/448 235/263/454
f 215/239/455 227/252/456 234/261/451 236/264/457
f 214/238/407 213/237/406 235/263/454 237/265/458
f 216/240/409 215/239/408 236/264/457 238/266/459
f 217/241/411 214/238/460 237/265/458 239/267/461
f 218/242/413 216/240/462 238/266/459 240/268/463
f 219/243/415 217/241/411 239/267/461 241/269/464
f 220/244/416 218/242/413 240/268/463 242/270/465
f 221/245/466 219/243/467 241/269/464 228/254/439
f 222/246/421 220/244/468 242/270/465 230/256/443
f 238/266/469 236/264/457 243/271/470 244/272/471
f 239/267/461 237/265/458 245/273/472 246/274/473
f 240/268/474 238/266/475 244/272/471 247/275/476
f 241/269/477 239/267/461 246/274/473 248/276/478
f 242/270/465 240/268/463 247/275/476 249/277/479
f 228/254/480 241/269/477 248/276/478 250/278/481
f 230/256/482 242/270/483 249/277/479 251/279/484
f 229/255/440 228/254/485 250/278/481 252/280/486
f 231/257/444 230/256/487 251/279/484 253/281/488
f 232/258/489 229/255/490 252/280/486 254/282/491
f 233/259/492 231/257/493 253/281/488 255/283/494
f 234/261/451 10/284/147 256/285/495
f 12/286/12 232/258/489 254/282/491
f 235/263/496 233/259/448 255/283/494 257/287/497
f 236/264/457 234/261/498 256/285/495 243/271/470
f 237/265/499 235/263/500 257/287/497 245/273/472
f 253/281/488 251/279/501 258/288/502 259/289/503
f 254/282/504 252/280/486 260/290/505 261/291/506
f 255/283/494 253/281/507 259/289/503 262/292/508
f 256/285/495 10/293/432 263/294/509
f 12/295/12 254/282/510 261/291/506
f 257/287/497 255/283/494 262/292/508 264/296/511
f 243/271/512 256/285/513 263/294/509 265/297/514
f 245/273/472 257/287/497 264/296/511 266/298/515
f 244/272/471 243/271/470 265/297/514 267/299/516
f 246/274/473 245/273/517 266/298/515 268/300/518
f 247/275/476 244/272/471 267/299/516 269/301/519
f 248/276/520 246/274/473 268/300/518 270/302/521
f 249/277/479 247/275/476 269/301/519 271/303/522
f 250/278/481 248/276/478 270/302/521 272/304/523
f 251/279/524 249/277/479 271/303/522 258/288/502
f 252/280/525 250/278/481 272/304/523 260/290/505
f 268/300/518 266/298/526 273/305/527 274/306/528
f 269/301/529 267/299/516 275/307/530 276/308/531
f 270/302/532 268/300/518 274/306/528 277/309/533
f 271/303/534 269/301/529 276/308/531 278/310/535
f 272/304/523 270/302/536 277/309/533 279/311/537
f 258/288/502 271/303/538 278/310/535 280/312/539
f 260/290/540 272/304/541 279/311/537 281/313/542
f 259/289/543 258/288/502 280/312/539 282/314/544
f 261/291/506 260/290/545 281/313/542 283/315/546
f 262/292/508 259/289/547 282/314/544 284/316/548
f 263/294/509 10/317/147 285/318/549
f 12/319/12 261/291/550 283/315/546
f 264/296/511 262/292/508 284/316/548 286/320/551
f 265/297/514 263/294/552 285/318/549 287/321/553
f 266/298/515 264/296/554 286/320/551 273/305/527
f 267/299/555 265/297/514 287/321/553 275/307/530
f 283/315/546 281/313/542 288/322/556 289/323/557
f 284/316/558 282/314/544 290/324/559 291/325/560
f 285/318/549 10/326/10 292/327/561
f 12/328/562 283/315/563 289/323/557
f 286/320/551 284/316/564 291/325/560 293/329/565
f 287/321/553 285/318/566 292/327/561 294/330/567
f 273/305/568 286/320/551 293/329/565 295/331/569
f 275/307/530 287/321/570 294/330/567 296/332/571
f 274/306/528 273/305/572 295/331/569 297/333/573
f 276/308/574 275/307/530 296/332/571 298/334/575
f 277/309/576 274/306/577 297/333/573 299/335/578
f 278/310/579 276/308/574 298/334/575 300/336/580
f 279/311/537 277/309/581 299/335/578 301/337/582
f 280/312/583 278/310/579 300/336/580 302/338/584
f 281/313/542 279/311/537 301/337/582 288/322/556
f 282/314/544 280/312/539 302/338/584 290/324/559
f 299/335/585 297/333/586 303/339/587 304/340/588
f 300/336/580 298/334/589 305/341/590 306/342/591
f 301/337/592 299/335/593 304/340/588 307/343/594
f 302/338/584 300/336/580 306/342/591 308/344/595
f 288/322/596 301/337/592 307/343/594 309/345/597
f 290/324/559 302/338/598 308/344/595 310/346/599
f 289/323/600 288/322/601 309/345/597 311/347/602
f 291/325/560 290/324/559 310/346/599 312/348/603
f 292/327/561 10/349/147 313/350/604
f 12/351/12 289/323/557 311/347/602
f 293/329/565 291/325/560 312/348/603 314/352/605
f 294/330/567 292/327/561 313/350/604 315/353/606
f 295/331/607 293/329/608 314/352/605 316/354/609
f 296/332/610 294/330/611 315/353/606 317/355/612
f 297/333/613 295/331/614 316/354/609 303/339/587
f 298/334/615 296/332/616 317/355/612 305/341/590
f 313/350/617 10/356/618 318/357/619
f 12/358/12 311/347/602 319/359/620
f 314/352/605 312/348/603 320/360/621 321/361/622
f 315/353/623 313/350/624 318/357/619 322/362/625
f 316/354/626 314/352/627 321/361/622 323/363/628
f 317/355/629 315/353/630 322/362/625 324/364/631
f 303/339/632 316/354/626 323/363/628 325/365/633
f 305/341/590 317/355/634 324/364/631 326/366/635
f 304/340/636 303/339/637 325/365/633 327/367/638
f 306/342/591 305/341/639 326/366/635 328/368/640
f 307/343/594 304/340/641 327/367/638 329/369/642
f 308/344/643 306/342/591 328/368/640 330/370/644
f 309/345/645 307/343/646 329/369/642 331/371/647
f 310/346/648 308/344/595 330/370/644 332/372/649
f 311/347/650 309/345/651 331/371/647 319/359/620
f 312/348/652 310/346/653 332/372/649 320/360/621
f 328/368/654 326/366/655 333/373/656 334/374/657
f 329/369/642 327/367/638 335/375/658 336/376/659
f 330/370/660 328/368/654 334/374/657 337/377/661
f 331/371/647 329/369/642 336/376/659 338/378/662
f 332/372/663 330/370/664 337/377/661 339/379/665
f 319/359/666 331/371/667 338/378/662 340/380/668
f 320/360/669 332/372/670 339/379/665 341/381/671
f 318/357/619 10/382/672 342/383/673
f 12/384/674 319/359/675 340/380/668
f 321/361/676 320/360/677 341/381/671 343/385/678
f 322/362/679 318/357/680 342/383/673 344/386/681
f 323/363/628 321/361/622 343/385/678 345/387/682
f 324/364/683 322/362/684 344/386/681 346/388/685
f 325/365/633 323/363/686 345/387/682 347/389/687
f 326/366/655 324/364/631 346/388/685 333/373/656
f 327/367/638 325/365/633 347/389/687 335/375/658
f 343/385/678 341/381/671 348/390/688 349/391/689
f 344/386/681 342/383/690 350/392/691 351/393/692
f 345/387/693 343/385/678 349/391/689 352/394/694
f 346/388/695 344/386/681 351/393/692 353/395/696
f 347/389/687 345/387/693 352/394/694 354/396/697
f 333/373/656 346/388/685 353/395/696 355/397/698
f 335/375/658 347/389/699 354/396/697 356/398/700
f 334/374/657 333/373/656 355/397/698 357/399/701
f 336/376/659 335/375/658 356/398/700 358/400/702
f 337/377/661 334/374/657 357/399/701 359/401/703
f 338/378/704 336/376/705 358/400/702 360/402/706
f 339/379/665 337/377/707 359/401/703 361/403/708
f 340/380/709 338/378/704 360/402/706 362/404/710
f 341/381/711 339/379/665 361/403/708 348/390/688
f 342/383/690 10/405/10 350/392/691
f 12/406/267 340/380/712 362/404/710
f 358/400/702 356/398/713 363/407/714 364/408/715
f 359/401/716 357/399/701 365/409/717 366/410/718
f 360/402/719 358/400/720 364/408/715 367/411/721
f 361/403/708 359/401/722 366/410/718 368/412/723
f 362/404/724 360/402/706 367/411/721 369/413/725
f 348/390/726 361/403/727 368/412/723 370/414/728
f 350/392/691 10/415/672 371/416/729
f 12/417/730 362/404/731 369/413/725
f 349/391/689 348/390/732 370/414/728 372/418/733
f 351/393/692 350/392/734 371/416/729 373/419/735
f 352/394/736 349/391/737 372/418/733 374/420/738
f 353/395/696 351/393/692 373/419/735 375/421/739
f 354/396/697 352/394/694 374/420/738 376/422/740
f 355/397/741 353/395/696 375/421/739 377/423/742
f 356/398/743 354/396/744 376/422/740 363/407/714
f 357/399/745 355/397/746 377/423/742 365/409/717
f 373/424/747 371/425/729 378/426/748 379/427/749
f 374/428/750 372/429/733 380/430/751 381/431/752
f 375/432/753 373/424/747 379/427/749 382/433/754
f 376/434/755 374/428/750 381/431/752 383/435/756
f 377/436/757 375/432/758 382/433/754 384/437/759
f 363/438/760 376/434/755 383/435/756 385/439/761
f 365/440/762 377/436/757 384/437/759 386/441/763
f 364/442/715 363/438/760 385/439/761 387/443/764
f 366/444/765 365/440/762 386/441/763 388/445/766
f 367/446/767 364/442/768 387/443/764 389/447/769
f 368/448/723 366/444/770 388/445/766 390/449/771
f 369/450/772 367/446/773 389/447/769 391/451/774
f 370/452/728 368/448/723 390/449/771 392/453/775
f 371/425/776 10/454/672 378/426/748
f 12/455/777 369/450/778 391/451/774
f 372/429/779 370/452/728 392/453/775 380/430/751
f 388/445/766 386/441/780 393/456/781 394/457/782
f 389/447/783 387/443/784 395/458/785 396/459/786
f 390/449/787 388/445/788 394/457/782 397/460/789
f 391/451/774 389/447/769 396/459/786 398/461/790
f 392/453/775 390/449/791 397/460/789 399/462/792
f 378/426/748 10/463/10 400/464/793
f 12/465/12 391/451/794 398/461/790
f 380/430/795 392/453/775 399/462/792 401/466/796
f 379/427/797 378/426/798 400/464/793 402/467/799
f 381/431/800 380/430/801 401/466/796 403/468/802
f 382/433/754 379/427/797 402/467/799 404/469/803
f 383/435/804 381/431/800 403/468/802 405/470/805
f 384/437/759 382/433/806 404/469/803 406/471/807
f 385/439/808 383/435/756 405/470/805 407/472/809
f 386/441/810 384/437/811 406/471/807 393/456/781
f 387/443/812 385/439/761 407/472/809 395/458/785
f 403/468/802 401/466/813 408/473/814 409/474/815
f 404/469/816 402/467/799 410/475/817 411/476/818
f 405/470/819 403/468/820 409/474/815 412/477/821
f 406/471/807 404/469/822 411/476/818 413/478/823
f 407/472/824 405/470/825 412/477/821 414/479/826
f 393/456/781 406/471/827 413/478/823 415/480/828
f 395/458/829 407/472/809 414/479/826 416/481/830
f 394/457/782 393/456/831 415/480/828 417/482/832
f 396/459/786 395/458/833 416/481/830 418/483/834
f 397/460/835 394/457/836 417/482/832 419/484/837
f 398/461/790 396/459/838 418/483/834 420/485/839
f 399/462/792 397/460/840 419/484/837 421/486/841
f 400/464/793 10/487/842 422/488/843
f 12/489/844 398/461/845 420/485/839
f 401/466/846 399/462/792 421/486/841 408/473/814
f 402/467/847 400/464/848 422/488/843 410/475/817
f 418/483/849 416/481/830 423/490/850 424/491/851
f 419/484/852 417/482/853 425/492/854 426/493/855
f 420/485/856 418/483/834 424/491/851 427/494/857
f 421/486/858 419/484/837 426/493/855 428/495/859
f 422/488/860 10/496/861 429/497/862
f 12/498/267 420/485/839 427/494/857
f 408/473/814 421/486/863 428/495/859 430/499/864
f 410/475/865 422/488/860 429/497/862 431/500/866
f 409/474/867 408/473/868 430/499/864 432/501/869
f 411/476/818 410/475/870 431/500/866 433/502/871
f 412/477/821 409/474/872 432/501/869 434/503/873
f 413/478/874 411/476/818 433/502/871 435/504/875
f 414/479/876 412/477/821 434/503/873 436/505/877
f 415/480/878 413/478/823 435/504/875 437/506/879
f 416/481/880 414/479/881 436/505/877 423/490/850
f 417/482/853 415/480/882 437/506/879 425/492/854
f 434/503/873 432/501/883 438/507/884 439/508/885
f 435/504/875 433/502/886 440/509/887 441/510/888
f 436/505/889 434/503/890 439/508/885 442/511/891
f 437/506/892 435/504/893 441/510/888 443/512/894
f 423/490/850 436/505/895 442/511/891 444/513/896
f 425/492/854 437/506/879 443/512/894 445/514/897
f 424/491/851 423/490/898 444/513/896 446/515/899
f 426/493/855 425/492/900 445/514/897 447/516/901
f 427/494/857 424/491/851 446/515/899 448/517/902
f 428/495/903 426/493/855 447/516/901 449/518/904
f 429/497/862 10/519/905 450/520/906
f 12/521/907 427/494/857 448/517/902
f 430/499/908 428/495/909 449/518/904 451/522/910
f 431/500/866 429/497/911 450/520/906 452/523/912
f 432/501/913 430/499/914 451/522/910 438/507/884
f 433/502/871 431/500/866 452/523/912 440/509/887
f 448/517/902 446/515/899 453/524/915 454/525/916
f 449/518/917 447/516/918 455/526/919 456/527/920
f 450/520/921 10/528/922 457/529/923
f 12/530/924 448/517/925 454/525/916
f 451/522/910 449/518/904 456/527/920 458/531/926
f 452/523/912 450/520/906 457/529/923 459/532/927
f 438/507/928 451/522/910 458/531/926 460/533/929
f 440/509/887 452/523/912 459/532/927 461/534/930
f 439/508/931 438/507/932 460/533/929 462/535/933
f 441/510/934 440/509/935 461/534/930 463/536/936
f 442/511/891 439/508/931 462/535/933 464/537/937
f 443/512/938 441/510/934 463/536/936 465/538/939
f 444/513/896 442/511/940 464/537/937 466/539/941
f 445/514/897 443/512/942 465/538/939 467/540/943
f 446/515/944 444/513/896 466/539/941 453/524/915
f 447/516/945 445/514/897 467/540/943 455/526/919
f 463/536/946 461/534/947 468/541/948 469/542/949
f 464/537/950 462/535/951 470/543/952 471/544/953
f 465/538/939 463/536/954 469/542/949 472/545/955
f 466/539/941 464/537/956 471/544/953 473/546/957
f 467/540/943 465/538/958 472/545/955 474/547/959
f 453/524/915 466/539/960 473/546/957 475/548/961
f 455/526/919 467/540/943 474/547/959 476/549/962
f 454/525/916 453/524/915 475/548/961 477/550/963
f 456/527/920 455/526/919 476/549/962 478/551/964
f 457/529/965 10/552/966 479/553/967
f 12/554/968 454/525/969 477/550/963
f 458/531/926 456/527/970 478/551/964 480/555/971
f 459/532/972 457/529/973 479/553/967 481/556/974
f 460/533/975 458/531/926 480/555/971 482/557/976
f 461/534/977 459/532/978 481/556/974 468/541/948
f 462/535/933 460/533/979 482/557/976 470/543/952
f 478/551/980 476/549/981 6/6/6 5/5/982
f 479/553/983 10/558/984 9/9/9
f 12/559/985 477/550/963 1/1/986
f 480/555/987 478/551/980 5/5/982 13/13/13
f 481/556/988 479/553/967 9/9/989 15/15/15
f 482/557/976 480/555/990 13/13/991 17/17/992
f 468/541/948 481/556/993 15/15/15 19/19/19
f 470/543/952 482/557/994 17/17/995 21/21/21
f 469/542/949 468/541/948 19/19/19 23/23/23
f 471/544/996 470/543/952 21/21/21 25/25/25
f 472/545/955 469/542/997 23/23/998 27/27/999
f 473/546/957 471/544/953 25/25/1000 29/29/29
f 474/547/1001 472/545/1002 27/27/27 31/31/1003
f 475/548/1004 473/546/1005 29/29/29 2/2/2
f 476/549/1006 474/547/1007 31/31/1003 6/6/1008
f 477/550/1009 475/548/1004 2/2/1010 1/1/1011
